<svg version="1.1" id="Layer_1" xmlns="http://www.w3.org/2000/svg" xmlns:xlink="http://www.w3.org/1999/xlink" x="0px" y="0px"
	 viewBox="0 0 2500 2500" style="enable-background:new 0 0 2500 2500;" xml:space="preserve">
<style type="text/css">
	.st0{fill-rule:evenodd;clip-rule:evenodd;fill:#010101;}
	.st1{fill-rule:evenodd;clip-rule:evenodd;fill:#EE1D51;}
	.st2{fill-rule:evenodd;clip-rule:evenodd;fill:#66C8CF;}
	.st3{fill-rule:evenodd;clip-rule:evenodd;fill:#FFFFFF;}
	.st4{fill-rule:evenodd;clip-rule:evenodd;fill:#EE1D52;}
	.st5{fill-rule:evenodd;clip-rule:evenodd;fill:#69C9D0;}
</style>
<g>
	<path class="st0" d="M250,0h2000c138.1,0,250,111.9,250,250v2000c0,138.1-111.9,250-250,250H250c-138.1,0-250-111.9-250-250V250
		C0,111.9,111.9,0,250,0z"/>
	<path class="st1" d="M1569.8,2300c76.1,0,137.7-61.2,137.7-136.6c0-75.4-61.7-136.6-137.7-136.6h-20.7
		c76.1,0,137.7,61.2,137.7,136.6c0,75.5-61.7,136.6-137.7,136.6H1569.8z"/>
	<path class="st2" d="M1547.2,2026.8h-20.8c-76.1,0-137.7,61.2-137.7,136.6c0,75.5,61.7,136.6,137.7,136.6h20.8
		c-76.1,0-137.7-61.2-137.7-136.6C1409.4,2087.9,1471.1,2026.8,1547.2,2026.8z"/>
	<ellipse class="st0" cx="1548.1" cy="2163.4" rx="67" ry="66.4"/>
	<path class="st3" d="M500,1965v69.2h81.1v263.9h81.1v-262h66l22.6-71.1H500z M1164.2,1965v69.2h81.1v263.9h81.1v-262h66l22.6-71.1
		H1164.2z M766,2004.3c0-21.7,17.7-39.3,39.6-39.3c21.9,0,39.6,17.6,39.6,39.3s-17.7,39.3-39.6,39.3
		C783.8,2043.6,766,2026,766,2004.3z M766,2071.7h79.2v226.5H766V2071.7z M879.2,1965v333.1h79.2v-86.1l24.5-22.5l77.3,110.4h84.9
		l-111.3-160.9l100-97.3h-96.2l-79.2,78.6V1965H879.2z M1733.9,1965v333.1h79.3v-86.1l24.5-22.5l77.4,110.4h84.9l-111.3-160.9
		l100-97.3h-96.2l-79.2,78.6V1965H1733.9z"/>
	<path class="st4" d="M1611.7,811.9c109.4,78.2,243.5,124.2,388.3,124.2V657.5c-27.4,0-54.7-2.8-81.6-8.5v219.2
		c-144.8,0-278.8-46-388.3-124.2v568.3c0,284.3-230.6,514.8-515.1,514.8c-106.1,0-204.8-32.1-286.7-87.1
		c93.5,95.6,224,154.9,368.3,154.9c284.5,0,515.1-230.5,515.1-514.8L1611.7,811.9L1611.7,811.9z M1712.3,530.9
		c-55.9-61.1-92.6-140-100.6-227.3v-35.8h-77.3C1553.8,378.7,1620.2,473.5,1712.3,530.9L1712.3,530.9z M908.3,1522
		c-31.2-41-48.1-91.1-48.1-142.6c0-130,105.5-235.5,235.6-235.5c24.2,0,48.4,3.7,71.5,11V870.2c-27-3.7-54.3-5.3-81.5-4.7v221.6
		c-23.1-7.3-47.2-11-71.5-11c-130.1,0-235.6,105.4-235.6,235.5C778.7,1403.6,831.4,1483.2,908.3,1522z"/>
	<path class="st3" d="M1530.1,744c109.5,78.2,243.5,124.2,388.3,124.2V649c-80.8-17.2-152.4-59.4-206.2-118.1
		c-92.1-57.4-158.4-152.2-177.9-263.1h-203v1112.4c-0.5,129.7-105.8,234.7-235.6,234.7c-76.5,0-144.5-36.5-187.5-92.9
		c-76.9-38.8-129.6-118.4-129.6-210.3c0-130.1,105.5-235.5,235.6-235.5c24.9,0,49,3.9,71.5,11V865.5
		c-279.5,5.8-504.2,234-504.2,514.7c0,140.1,56,267.1,146.8,359.9c82,55,180.6,87.1,286.7,87.1c284.4,0,515.1-230.5,515.1-514.8
		L1530.1,744z"/>
	<path class="st5" d="M1918.4,649v-59.3c-72.9,0.1-144.3-20.3-206.2-58.9C1767,590.8,1839.1,632.1,1918.4,649z M1534.4,267.8
		c-1.9-10.6-3.3-21.3-4.3-32V200h-280.3v1112.4c-0.5,129.7-105.7,234.7-235.6,234.7c-38.1,0-74.1-9-106-25.1
		c43,56.5,111,92.9,187.5,92.9c129.8,0,235.2-105,235.6-234.7V267.8H1534.4z M1085.8,865.5v-63.1c-23.4-3.2-47-4.8-70.7-4.8
		c-284.5,0-515.1,230.5-515.1,514.8c0,178.2,90.6,335.3,228.3,427.7c-90.8-92.8-146.8-219.8-146.8-359.9
		C581.5,1099.5,806.3,871.3,1085.8,865.5L1085.8,865.5z"/>
	<path class="st3" d="M1549,2300c76.1,0,137.8-61.2,137.8-136.6c0-75.4-61.7-136.6-137.8-136.6h-1.9c-76.1,0-137.7,61.2-137.7,136.6
		c0,75.5,61.7,136.6,137.7,136.6H1549z M1481.1,2163.4c0-36.7,30-66.4,67-66.4c37,0,67,29.7,67,66.4c0,36.7-30,66.5-67,66.5
		C1511.1,2229.8,1481.1,2200.1,1481.1,2163.4z"/>
</g>
</svg>
