<svg version="1.1" id="Layer_1" xmlns="http://www.w3.org/2000/svg" xmlns:xlink="http://www.w3.org/1999/xlink" x="0px" y="0px"
	 viewBox="0 0 266.7 265.8" style="enable-background:new 0 0 266.7 265.8;" xml:space="preserve">
<style type="text/css">
	.st0{fill:#FF8C00;}
</style>
<path class="st0" d="M181.4,159.6c0.4,3-0.5,4.3-1.5,4.3c-1,0-2.4-1.2-3.9-3.6c-1.5-2.4-2.1-5.1-1.3-6.5c0.5-0.9,1.5-1.3,2.9-0.8
	C180.1,153.9,181.1,157.8,181.4,159.6z M167.2,166.2c3.1,2.6,4,5.7,2.4,7.8c-0.9,1.2-2.4,1.8-4.1,1.8c-1.7,0-3.5-0.6-4.7-1.7
	c-2.8-2.4-3.6-6.4-1.8-8.6c0.7-0.9,1.9-1.4,3.2-1.4C163.9,164.2,165.7,164.9,167.2,166.2z M162.1,191.2c13.2,0,27.5,4.5,43.3,18.6
	c1.6,1.4,3.7-0.3,2.3-2.1c-15.6-19.7-30-23.4-44.3-26.6c-17.6-3.9-26.6-13.8-32.9-24.6c-1.3-2.2-1.8-1.8-1.9,1
	c-0.1,3.4,0.1,7.9,0.9,12.3l0,0c-0.7,0-1.4,0-2.1,0c-25.1,0-45.5-20.4-45.5-45.5c0-25.1,20.4-45.5,45.5-45.5s45.5,20.4,45.5,45.5
	c0,1.8-0.1,3.6-0.3,5.3c-3.3-0.6-9.9-0.7-14.5-0.3c-1.7,0.1-1.5,1-0.2,1.2c15,2.7,25.4,12,27.7,29c0.1,0.4,0.6,0.5,0.8,0.2
	c6.2-10.3,9.7-22.4,9.7-35.3c0-38-30.8-68.8-68.8-68.8s-68.8,30.8-68.8,68.8c0,38,30.8,68.8,68.8,68.8
	C137.4,193.2,147.4,191.2,162.1,191.2z"/>
</svg>
