<svg width="940" height="680" viewBox="0 0 940 680" fill="none" xmlns="http://www.w3.org/2000/svg">
<path d="M735.147 175.919C733.67 174.416 732.805 173.04 731.582 171.129C730.946 170.161 730.258 169.116 729.494 167.995C731.608 165.55 733.391 162.722 734.74 159.613L740.139 147.308L726.847 145.397C724.606 145.066 720.99 144.123 716.763 143.003C708.615 140.863 698.15 138.11 686.743 136.913C690.638 135.206 693.949 132.123 696.265 127.945L698.455 123.997C698.455 123.997 697.869 118.468 695.731 116.736C696.546 115.029 697.182 113.143 697.616 111.079L699.423 102.264L690.918 99.3603C689.595 98.9019 688.271 98.5703 686.971 98.3666C686.488 96.7618 685.775 95.0541 684.807 93.2456L679.765 83.9972L670.675 89.322C668.409 90.6472 666.5 92.1761 664.946 93.8827C663.597 93.6281 662.145 93.5002 660.617 93.5002C660.617 93.5002 655.423 92.914 649.694 95.0032L642.36 87.3856L633.677 78.1123C625.555 69.4252 614.555 66.8517 603.351 71.1318C599.073 66.8517 592.402 63.3105 582.039 63.3105C578.525 63.3105 575.443 63.7429 573.636 63.9726C573.636 63.9726 559.376 66.571 551.356 74.1886L541.629 69.552C535.11 79.8189 523.958 83.0805 523.958 83.0805C523.194 80.0736 521.894 77.2714 520.036 74.6979L520.673 71.0809C520.673 70.979 522.862 58.7248 529.534 48.33L541.145 30.2407L524.696 32.1011C524.746 30.4704 524.671 28.534 524.441 26.2411L522.964 12.1773L510.08 18.0124C508.654 18.6485 507.457 19.2856 506.337 19.8718L503.791 14.4453L497.884 17.5021C497.298 16.0501 496.534 14.3943 495.49 12.4839L488.692 0L479.041 10.4197C478.047 11.4903 477.207 12.484 476.494 13.4267L470.638 7.5916L464.731 13.4516C463.992 12.5089 463.177 11.5153 462.184 10.4457L452.432 0L445.607 12.5349C444.564 14.4453 443.826 16.076 443.24 17.528L437.358 14.4712L434.811 19.8978C433.691 19.3116 432.494 18.6745 431.068 18.0124L418.133 12.2033L416.707 26.3181C416.478 28.5849 416.402 30.4953 416.453 32.1261L399.978 30.2666L411.614 48.3549C418.311 58.7248 420.45 70.979 420.45 71.0809L421.061 74.6979C419.203 77.2974 417.879 80.0996 417.14 83.1054C417.14 83.1054 406.598 78.5966 399.545 69.552L389.615 74.2905C378.284 66.648 371.255 63.667 359.033 63.3105C348.67 63.0299 341.999 66.8517 337.721 71.1318C326.492 66.8766 315.517 69.4501 307.42 78.1383C307.42 78.1383 302.098 83.9213 298.737 87.4116C295.376 90.9267 290.411 93.8318 290.411 93.8318C290.411 93.8318 283.357 92.252 276.101 93.9077C274.548 92.201 272.612 90.6721 270.321 89.322L261.204 83.9972L256.188 93.2965C255.221 95.0801 254.533 96.7618 254.075 98.3666C252.777 98.5703 251.453 98.9019 250.129 99.3603L241.674 102.315L243.432 111.079C243.864 113.194 244.475 115.08 245.315 116.786C244.832 117.729 244.4 118.723 244.043 119.767L242.617 124.022L244.781 127.971C247.073 132.123 250.357 135.232 254.279 136.939C242.846 138.136 232.406 140.888 224.233 143.028C220.031 144.123 216.415 145.092 214.175 145.422L200.832 147.359L203.862 154.237L206.281 159.715C207.656 162.773 209.464 165.601 211.552 168.046C210.762 169.167 207.401 174.441 205.899 175.944L199.151 182.797L205.619 189.93C206.434 190.797 213.691 198.415 225.429 198.44C228.637 198.44 231.82 197.88 234.978 196.759C238.109 201.651 241.827 206.619 245.213 209.064C238.975 216.401 231.871 222.771 221.763 227.586L213.309 231.612L216.95 241.267C219.318 247.101 223.927 253.496 232.839 255.941C230.929 261.649 230.013 267.05 229.198 271.865C227.288 283.304 226.473 288.042 216.415 291.584L207.376 294.743L209.973 303.966C212.061 311.481 215.193 316.45 218.579 319.736L212.571 326.36C212.571 326.36 226.83 337.061 240.809 338.36C241.012 338.386 252.929 339.15 258.276 332.322C260.415 340.066 263.802 347.201 266.883 353.672C273.198 366.971 276.559 374.843 272.332 382.027L262.783 398.231L281.55 397.441C289.749 397.109 297.362 396.6 303.957 394.969C303.957 395.327 303.932 395.657 303.906 395.989L302.378 409.899L318.827 406.435C320.559 405.925 322.189 405.237 323.666 404.447C333.85 416.37 351.165 425.669 374.49 425.669H375.839L349.026 436.675L368.556 446.841C381.415 453.541 395.701 459.147 411.997 463.91L409.73 471.733L419.534 474.611C425.187 476.267 445.633 481.694 470.536 481.694C495.439 481.694 515.86 476.267 521.538 474.611L531.316 471.733L529.049 463.936C545.372 459.172 559.657 453.567 572.515 446.867L592.045 436.701L565.207 425.695H566.557C589.881 425.695 607.17 416.396 617.356 404.472C618.833 405.262 620.463 405.95 622.193 406.46L638.642 409.925L637.14 396.04C637.114 395.708 637.09 395.352 637.09 394.995C643.659 396.626 651.298 397.109 659.471 397.467L678.237 398.256L668.74 382.078C664.487 374.894 667.874 367.022 674.164 353.723C677.245 347.252 680.631 340.117 682.77 332.373C686.386 335.124 690.282 336.78 694.152 337.647C694.152 337.647 697.157 338.539 700.034 338.614C708.335 338.869 712.486 336.5 718.189 332.908L728.553 326.386L722.492 319.762C725.879 316.501 729.011 311.532 731.099 304.043L733.721 294.794L724.657 291.636C714.573 288.093 713.784 283.355 711.875 271.915C711.06 267.101 710.168 261.675 708.233 255.992C717.145 253.522 721.728 247.126 724.097 241.318L727.713 231.637L719.259 227.611C709.15 222.797 702.045 216.427 695.782 209.089C699.193 206.644 702.911 201.675 706.069 196.784C709.2 197.906 712.384 198.44 715.618 198.466C727.356 198.466 734.638 190.848 735.428 189.981L741.895 182.848L735.147 175.919Z" fill="white"/>
<path fill-rule="evenodd" clip-rule="evenodd" d="M387.787 301.469V223.764C387.787 216.529 385.699 209.292 383.203 202.644H443.475C449 210.235 459.032 215.33 470.542 215.33C482 215.33 492.032 210.235 497.583 202.644H557.854C555.307 209.318 553.245 216.529 553.245 223.764V301.469H387.787ZM470.516 407.656C462.088 399.275 456.078 398.357 433.366 398.357C406.222 398.357 387.787 382.434 387.787 356.983V306.029H553.22V356.983C553.22 382.434 534.81 398.357 507.616 398.357C484.928 398.332 478.918 399.275 470.516 407.656Z" fill="#FFDD2D"/>
<path d="M397.383 417.263V432.779L383.914 438.205C395.295 443.377 409.428 448.523 426.029 452.319L433.668 427.428C417.373 424.091 406.015 420.601 397.383 417.263Z" fill="white"/>
<path d="M470.509 438.282C454.594 438.282 441.201 436.626 435.854 435.403L427.782 461.517C440.463 464.625 455.307 466.918 470.509 466.918C485.659 466.918 500.504 464.651 513.236 461.517L505.139 435.403C499.791 436.651 486.449 438.282 470.509 438.282Z" fill="white"/>
<path d="M543.642 417.263C534.985 420.601 523.654 424.066 507.357 427.454L515.022 452.345C531.65 448.548 545.73 443.402 557.112 438.231L543.668 432.804V417.263H543.642Z" fill="white"/>
<path d="M369.167 166.95C390.25 155.562 441.787 130.493 406.851 103.461C402.09 99.7929 396.845 96.4804 392.439 92.379C386.991 96.5822 394.477 107.028 396.361 110.85C396.361 110.85 384.724 112.021 381.949 112.021C363.972 111.945 345.129 101.296 354.678 80.8887C347.523 82.3667 346.657 89.2453 344.468 95.1302C339.884 92.0225 331.914 85.3476 325.778 86.2903C330.768 102.263 351.776 116.659 368.071 119.919C351.597 128.887 321.041 135.562 304.975 116.25C293.694 138.085 309.405 147.205 324.81 158.644C266.169 185.421 274.827 215.458 236.352 239.101C241.342 241.444 263.597 236.732 265.583 236.451C257.231 247.279 253.335 251.865 250.891 257.139C248.548 262.081 247.504 267.661 245.188 279.686C243.379 289.189 240.069 298.666 228.509 304.959C233.042 313.162 243.1 306.742 247.301 305.647C246.74 306.513 245.314 316.398 241.546 321.162C261.305 319.888 252.164 278.208 271.924 288.246C277.5 291.049 279.181 297.622 276.608 302.997C263.622 329.799 293.134 353.416 291.529 376.906C298.787 376.855 306.299 376.652 311.034 366.843C313.505 371.734 317.324 378.613 319.463 385.237L325.37 375.174C329.011 391.836 344.544 407.224 365.526 408.6C355.519 392.753 367.512 371.123 343.195 348.117C346.224 345.671 353.227 340.958 355.722 337.748C325.88 341.264 294.738 317.646 308.87 306.437C318.113 299.125 322.162 314.309 336.421 311.761L330.845 306.946C332.805 305.009 335.046 302.488 337.363 300.577C331.303 299.839 324.682 295.966 324.682 295.966L328.298 289.978C293.338 289.927 292.446 263.177 306.654 262.107C313.326 261.623 321.958 273.928 343.474 271.354C340.724 268.043 339.63 263.024 338.33 259.33C343.525 258.846 349.637 258.897 354.551 256.502C344.035 255.152 341.386 251.61 332.627 244.987L342.787 241.267C328.044 233.904 328.935 221.089 328.477 207.738C336.192 212.171 345.257 219.051 354.932 215.866C357.224 215.101 358.701 214.032 358.752 211.637C344.951 206.109 336.091 184.835 369.167 166.95ZM343.984 169.039C325.523 188.784 333.518 200.605 337.236 204.248C330.36 202.771 320.1 194.006 322.441 185.523C320.253 188.147 318.012 191 315.72 193.93C311.136 200.045 307.037 206.032 303.396 211.841C297.794 228.502 308.055 245.7 325.523 253.317C306.12 250.464 297.412 233.191 297.463 222.185C288.194 239.713 283.763 255.712 284.171 269.139C284.349 274.132 284.782 278.794 285.444 283.201C289.901 291.66 297.056 294.769 309.812 296.322C298.227 297.061 292.09 296.526 287.049 291.227C294.942 325.188 331.863 354.588 346.887 379.759C331.837 360.193 300.697 331.048 289.799 309.978C288.958 317.595 290.995 337.111 300.467 349.11C286.513 335.379 285.419 314.589 286.336 302.411C282.796 293.647 280.556 283.864 280.25 272.731C279.969 262.489 280.682 253.598 282.236 245.623C273.425 258.158 260.694 262.998 254.43 282.081C255.652 257.469 274.012 257.088 287.762 227.203C293.083 214.134 300.823 202.847 309.38 190.058C298.507 193.625 290.359 196.172 277.779 209.955C286.717 188.809 338.356 165.04 362.012 142.033C354.907 143.537 325.905 144.275 313.861 136.225C335.683 142.135 384.241 135.384 402.574 122.849C389.919 141.065 362.368 142.11 328.834 178.339C333.111 174.924 338.815 171.485 343.984 169.039Z" fill="white"/>
<path d="M695.809 279.688C693.493 267.663 692.474 262.083 690.131 257.141C687.713 251.867 683.791 247.282 675.414 236.453C677.4 236.734 699.706 241.448 704.671 239.104C666.196 215.461 674.853 185.423 616.187 158.647C631.592 147.208 647.303 138.087 636.022 116.228C619.956 135.565 589.4 128.89 572.925 119.897C589.247 116.635 610.228 102.267 615.219 86.2665C609.057 85.3238 601.087 91.9986 596.504 95.0814C594.314 89.1965 593.473 82.3179 586.318 80.8149C595.867 101.247 576.999 111.896 558.997 111.973C556.247 111.973 544.636 110.801 544.636 110.801C546.495 106.979 553.981 96.5345 548.506 92.3302C544.101 96.4576 538.907 99.7441 534.12 103.413C499.159 130.444 550.747 155.539 571.83 166.901C604.856 184.786 596.071 206.06 582.245 211.511C582.296 213.906 583.773 214.977 586.09 215.741C595.714 218.951 604.831 212.073 612.495 207.614C612.062 220.964 612.978 233.804 598.236 241.142L608.37 244.861C599.611 251.485 596.987 255.027 586.471 256.377C591.36 258.772 597.523 258.721 602.692 259.205C601.367 262.899 600.222 267.918 597.523 271.23C619.064 273.777 627.722 261.498 634.342 261.981C648.499 263.052 647.659 289.802 612.673 289.853L616.289 295.84C616.289 295.84 609.668 299.713 603.582 300.452C605.9 302.337 608.166 304.885 610.126 306.821L604.55 311.637C618.784 314.184 622.859 299 632.101 306.312C646.233 317.522 615.117 341.138 585.25 337.623C587.77 340.833 594.773 345.572 597.802 348.018C573.46 370.998 585.428 392.653 575.471 408.525C596.402 407.124 611.935 391.736 615.627 375.074L621.534 385.137C623.647 378.513 627.518 371.635 629.937 366.743C634.647 376.552 642.21 376.756 649.493 376.807C647.837 353.317 677.324 329.7 664.388 302.898C661.792 297.548 663.471 290.975 669.049 288.147C688.858 278.108 679.666 319.79 699.451 321.063C695.657 316.298 694.257 306.414 693.721 305.548C697.897 306.644 707.931 313.063 712.462 304.834C700.979 298.668 697.669 289.191 695.809 279.688ZM658.812 245.6C660.366 253.6 661.154 262.466 660.798 272.708C660.467 283.841 658.251 293.624 654.712 302.388C655.603 314.567 654.535 335.355 640.58 349.088C650.027 337.063 652.09 317.573 651.249 309.955C640.3 331.024 609.185 360.17 594.11 379.737C609.159 354.565 646.08 325.139 653.999 291.204C648.906 296.477 642.821 297.039 631.21 296.3C643.941 294.745 651.096 291.637 655.552 283.179C656.214 278.797 656.648 274.109 656.825 269.116C657.259 255.689 652.803 239.689 643.534 222.161C643.611 233.167 634.902 250.44 615.474 253.294C632.891 245.651 643.177 228.454 637.601 211.818C633.985 206.009 629.912 199.996 625.277 193.907C622.985 190.977 620.745 188.124 618.53 185.5C620.872 193.983 610.611 202.747 603.735 204.225C607.479 200.582 615.449 188.76 597.013 169.016C602.182 171.462 607.886 174.901 612.189 178.264C578.654 142.036 551.129 141.017 538.423 122.776C556.781 135.311 605.34 142.087 627.136 136.15C615.117 144.201 586.09 143.462 578.985 141.959C602.641 164.965 654.331 188.736 663.243 209.882C650.664 196.098 642.49 193.551 631.668 189.984C640.249 202.798 647.939 214.06 653.261 227.129C667.036 257.013 685.421 257.371 686.617 282.007C680.354 262.975 667.647 258.135 658.812 245.6Z" fill="white"/>
<path d="M497.552 202.617C492.025 210.209 481.968 215.304 470.535 215.304C467.861 215.304 465.289 214.999 462.845 214.54C463.533 217.674 465.137 220.91 468.472 223.686C467.123 232.781 471.044 241.291 480.797 243.508C481.84 248.145 484.693 251.635 489.531 253.29L482.731 261.138C480.109 264.144 476.697 265.112 473.947 264.756L443.596 261.316C444.919 257.953 441.405 254.055 431.78 255.711L443.697 222.336L436.439 206.872L422.665 218.642L421.646 253.647L415.713 250.769C408.074 247.456 405.808 261.392 413.091 261.443L416.019 261.469C415.815 262.895 416.273 264.475 417.419 264.985C416.044 265.545 415.636 268.118 417.343 269.036C415.611 269.876 415.357 272.526 416.757 273.673C415.255 276.245 414.974 281.825 420.297 283.227C424.676 284.373 427.426 279.684 428.318 276.959L475.551 291.583C482.197 293.494 486.984 292.423 492.535 287.558L504.86 276.78C503.306 283.838 505.826 290.181 511.2 292.296C511.2 292.296 510.359 298.767 510.69 301.443L527.215 301.468H553.238V223.763C553.238 216.528 555.302 209.292 557.848 202.617H527.215H497.552Z" fill="white"/>
<path d="M426.819 333.367L427.736 334.514C429.009 336.094 429.773 335.711 431.224 334.871L433.363 333.725C434.713 332.705 443.498 336.069 443.981 328.757C444.949 334.208 438.456 345.698 442.377 352.119L447.648 360.756L430.435 361.011C428.551 361.011 427.558 362.157 427.049 363.176L422.541 372.526C421.369 374.997 421.446 377.545 422.923 379.252L425.979 382.691C425.979 382.691 428.475 380.577 429.288 377.8L427.939 376.398C426.819 375.328 426.819 374.309 427.43 372.984L430.205 367.227C431.275 364.959 432.37 364.475 434.815 365.061L448.743 368.067C449.761 368.323 451.417 368.806 452.409 367.099C454.115 364.067 457.12 363.864 460.176 364.348C467.814 365.494 485.461 367.329 491.75 359.966C499.134 369.775 513.572 369.775 512.63 374.92L509.574 391.786H514.157L516.958 374.539C517.263 372.526 518.512 369.775 516.347 368.221C515.456 367.533 515.049 367.176 513.036 363.711C510.414 359.125 510.542 352.246 508.02 346.31C510.414 343.482 513.011 342.514 515.277 343.049C520.37 344.297 521.745 353.087 528.976 360.245C528.162 357.061 527.806 353.571 526.099 350.539C526.099 350.539 531.115 354.437 532.414 358.997C533.229 361.851 534.069 363.94 536.641 365.265C538.347 365.876 540.384 365.061 542.422 362.615C542.422 362.615 537.659 355.839 534.171 351.406C529.384 345.316 522.992 339.202 514.285 339.915C511.534 340.145 508.886 341.393 506.366 342.896C496.46 337.342 488.771 343.227 485.715 343.227L467.178 342.131C463.537 341.903 460.659 337.673 460.659 337.673C460.201 321.98 447.597 315.737 443.243 315.737C443.243 315.737 443.651 312.909 442.504 311.916L438.634 316.782L427.888 312.858L436.317 319.763L427.175 330.387C426.234 331.432 426.361 332.807 426.819 333.367Z" fill="white"/>
<path d="M414.675 355.403C412.078 357.415 412.205 360.218 413.759 363.352L415.312 366.256L419.36 363.173L418.444 361.186C417.782 359.785 417.808 358.358 418.953 357.466L424.759 353.084C426.389 351.887 426.898 351.76 428.63 352.014L440.876 354.588C440.876 354.588 439.018 351.887 438.407 349.135L426.872 347.606C425.242 347.403 424.25 348.091 422.824 349.186L414.675 355.403Z" fill="white"/>
<path d="M492.995 391.785H497.63L505.064 373.467C505.319 372.83 505.675 372.55 505.956 372.015C502.62 370.69 500.659 369.773 497.884 368.168C499.743 370.665 501.194 371.735 500.43 374.053L492.995 391.785Z" fill="white"/>
<path d="M496.94 144.022L505.521 94.6738L473.005 105.731V156.608L496.94 144.022ZM478.504 110.724L500.071 102.776C500.071 102.776 495.87 106.189 490.854 109.628C486.398 112.711 478.504 115.998 478.504 115.998V110.724ZM478.504 122.673L498.238 115.615C498.238 115.615 495.87 118.113 490.879 121.552C486.423 124.609 478.53 127.895 478.53 127.895V122.673H478.504ZM478.504 135.36L495.87 128.685C495.87 128.685 495.87 130.8 490.854 134.214C486.398 137.297 478.504 140.583 478.504 140.583V135.36Z" fill="white"/>
<path d="M439.09 187.663L439.803 188.81H446.5L446.576 189.982C446.653 191.104 446.908 192.25 447.289 193.421C448.334 196.606 450.396 199.944 453.706 202.644C457.551 205.753 463.102 207.995 470.486 207.995C486.503 207.995 493.734 197.626 494.422 189.982L494.473 188.81H501.194L501.907 187.663C508.223 177.779 515.938 166.798 524.9 165.219L500.456 151.027L470.486 167.333L440.49 151.027L416.071 165.219C425.035 166.773 432.75 177.779 439.09 187.663Z" fill="white"/>
<path d="M467.968 156.608V105.731L435.503 94.6738L444.032 144.022L467.968 156.608ZM462.493 140.634C462.493 140.634 454.599 137.323 450.144 134.265C445.128 130.851 445.128 128.711 445.128 128.711L462.518 135.386V140.634H462.493ZM462.493 110.724V115.998C462.493 115.998 454.599 112.711 450.144 109.628C445.102 106.189 440.875 102.776 440.875 102.776L462.493 110.724ZM462.493 122.673V127.921C462.493 127.921 454.599 124.635 450.144 121.577C445.102 118.138 442.76 115.641 442.76 115.641L462.493 122.673Z" fill="white"/>
<path d="M470.508 72.9155C451.945 72.9155 438.017 79.0042 434.986 86.1385L470.508 100.176L505.978 86.1385C502.973 79.0042 489.07 72.9155 470.508 72.9155Z" fill="white"/>
<path d="M470.512 52.5319C484.186 52.5319 497.885 56.6852 507.102 62.0609C508.605 57.0927 510.209 53.5515 512.399 49.5011L503.997 50.8003L497.197 36.2781L484.492 43.0299L470.512 29.1958L456.507 43.0299L443.827 36.2781L436.978 50.8003L428.574 49.5011C430.764 53.5515 432.343 57.0927 433.897 62.0609C443.14 56.6852 456.788 52.5319 470.512 52.5319Z" fill="white"/>
<path d="M702.223 164.376C706.806 163.791 710.499 162.262 715.006 158.898C705.304 156.326 684.984 148.963 667.644 152.275C661.915 153.039 658.733 155.357 660.769 156.682C670.089 162.873 681.598 177.216 689.975 193.956C697.334 184.809 694.253 172.809 692.699 169.37C707.366 178.21 711.212 182.516 718.01 180.834C714.368 175.255 709.25 170.236 702.223 164.376Z" fill="white"/>
<path d="M251.045 193.932C259.422 177.194 270.931 162.851 280.276 156.659C282.364 155.335 279.13 153.016 273.452 152.252C256.086 148.966 235.716 156.303 226.015 158.876C230.572 162.24 234.188 163.768 238.823 164.354C231.77 170.239 226.651 175.233 223.01 180.812C229.859 182.493 233.679 178.188 248.32 169.347C246.818 172.812 243.711 184.786 251.045 193.932Z" fill="white"/>
<path fill-rule="evenodd" clip-rule="evenodd" d="M352.717 349.29C359.465 343.939 365.066 341.263 364.787 328.296C354.652 333.493 325.905 333.213 313.886 316.653C310.499 311.94 314.115 309.571 317.399 313.29C325.624 322.615 340.851 318.386 346.402 315.71C345.511 312.501 343.041 308.322 340.979 306.539C343.067 304.501 348.949 301.443 350.145 296.195C347.013 294.488 334.816 293.265 334.816 293.265C336.778 291.38 339.221 288.756 337.745 281.75C325.293 285.572 309.888 280.374 306.4 275.763C302.962 271.227 306.477 266.973 309.379 269.979C315.592 276.501 346.198 283.966 357.581 272.629C353.354 271.457 348.694 267.686 347.853 265.342C358.396 264.273 366.798 258.056 367.486 250.311C361.654 250.311 350.654 249.878 346.885 247.075C351.927 245.216 355.136 243.381 356.74 237.725C337.465 236.554 335.937 222.235 335.835 219.866C348.388 227.101 370.49 223.891 364.761 206.057C354.321 205.497 343.805 188.606 372.502 173.09C398.602 158.951 428.266 143.715 425.643 118.621C423.937 102.57 397.532 91.6146 394.171 83.4877C383.145 88.7355 380.93 94.8252 385.895 105.041C385.895 105.041 361.323 107.487 359.388 92.3536C358.548 85.5768 363.08 79.2325 367.944 74.3672C365.194 74.3672 346.682 69.3989 341.105 84.4813C330.742 77.399 321.856 77.6537 314.879 85.1434C326.031 91.7674 332.932 114.493 351.367 121.193C338.253 128.301 317.043 125.321 304.668 103.461C292.955 121.117 286.208 138.594 311.34 157.269C265.633 178.083 265.965 217.879 226.191 236.833C230.214 247.661 238.719 247.661 249.567 245.98C232.378 268.323 247.02 291.711 219.8 301.265C222.346 310.386 227.464 317.672 237.497 314.997C234.645 319.455 232.761 319.353 228.33 324.245C243.2 333.621 260.847 326.844 264.844 296.755C265.557 291.38 272.941 294.743 270.395 300.017C253.436 335.099 296.317 361.493 281.141 387.225C294.508 386.663 304.719 385.619 310.27 381.11C312.995 386.511 314.65 391.861 314.039 397.135C321.423 395.632 324.122 391.275 324.631 386.231C329.47 400.371 346.784 415.478 374.488 415.478C359.796 394.486 373.47 373.212 352.717 349.29ZM325.369 375.148L319.463 385.211C317.348 378.587 313.504 371.709 311.034 366.818C306.273 376.626 298.761 376.83 291.529 376.881C293.133 353.391 263.622 329.774 276.608 302.972C279.205 297.622 277.499 291.049 271.922 288.221C252.138 278.183 261.304 319.863 241.546 321.137C245.314 316.372 246.739 306.488 247.3 305.621C243.098 306.717 233.04 313.137 228.509 304.934C240.069 298.641 243.379 289.164 245.187 279.661C247.478 267.635 248.548 262.056 250.865 257.113C253.309 251.84 257.205 247.254 265.557 236.426C263.571 236.706 241.342 241.42 236.326 239.076C274.801 215.433 266.143 185.395 324.784 158.619C309.404 147.18 293.693 138.059 304.949 116.226C321.015 135.537 351.546 128.862 368.046 119.894C351.75 116.633 330.742 102.264 325.777 86.2649C331.913 85.3222 339.883 91.9971 344.442 95.1048C346.657 89.1939 347.523 82.3413 354.678 80.8633C345.129 101.27 363.972 111.92 381.949 111.997C384.749 111.997 396.361 110.824 396.361 110.824C394.501 107.003 386.99 96.5568 392.439 92.3536C396.844 96.4809 402.09 99.7674 406.851 103.436C441.812 130.492 390.249 155.562 369.166 166.951C336.089 184.835 344.951 206.134 358.752 211.561C358.701 213.955 357.224 215.025 354.932 215.79C345.257 219 336.191 212.095 328.476 207.662C328.934 221.013 328.018 233.853 342.786 241.19L332.626 244.884C341.36 251.534 344.034 255.049 354.55 256.425C349.636 258.82 343.55 258.769 338.33 259.254C339.655 262.947 340.724 267.967 343.474 271.278C321.958 273.827 313.326 261.546 306.654 262.031C292.446 263.1 293.337 289.852 328.298 289.903L324.682 295.889C324.682 295.889 331.302 299.762 337.389 300.5C335.071 302.386 332.83 304.934 330.87 306.869L336.446 311.685C322.162 314.232 318.138 299.048 308.869 306.36C294.738 317.57 325.879 341.188 355.721 337.671C353.227 340.882 346.198 345.621 343.194 348.066C367.511 371.047 355.518 392.702 365.525 408.575C344.544 407.198 329.011 391.784 325.369 375.148Z" fill="black"/>
<path fill-rule="evenodd" clip-rule="evenodd" d="M287 291.229C292.067 296.502 298.178 297.063 309.763 296.324C297.007 294.77 289.852 291.661 285.396 283.204C284.759 278.822 284.327 274.133 284.148 269.14C283.741 255.713 288.171 239.714 297.44 222.186C297.389 233.166 306.072 250.439 325.5 253.318C308.033 245.676 297.771 228.478 303.372 211.842C307.014 206.033 311.114 200.02 315.697 193.932C317.988 191.002 320.229 188.148 322.419 185.524C320.076 194.008 330.338 202.772 337.213 204.249C333.495 200.606 325.5 188.811 343.961 169.067C338.817 171.512 333.113 174.951 328.785 178.314C362.295 142.086 389.87 141.067 402.526 122.826C384.192 135.361 335.635 142.137 313.813 136.2C325.856 144.251 354.859 143.512 361.963 142.009C338.334 165.015 286.694 188.786 277.732 209.932C290.31 196.123 298.458 193.601 309.356 190.059C300.776 202.874 293.061 214.135 287.738 227.205C273.988 257.063 255.604 257.446 254.407 282.057C260.672 262.974 273.403 258.134 282.213 245.599C280.66 253.599 279.921 262.465 280.201 272.707C280.507 283.84 282.748 293.623 286.287 302.387C285.396 314.566 286.465 335.354 300.419 349.087C290.947 337.087 288.909 317.572 289.75 309.954C300.674 331.023 331.815 360.169 346.864 379.736C331.815 354.59 294.919 325.189 287 291.229Z" fill="black"/>
<path fill-rule="evenodd" clip-rule="evenodd" d="M631.692 190.057C642.514 193.624 650.688 196.147 663.266 209.955C654.355 188.809 602.639 165.039 579.009 142.034C586.113 143.511 615.141 144.276 627.16 136.225C605.364 142.161 556.806 135.384 538.446 122.849C551.128 141.091 578.679 142.11 612.213 178.338C607.91 174.975 602.206 171.536 597.037 169.09C615.473 188.835 607.503 200.656 603.76 204.299C610.634 202.822 620.896 194.058 618.553 185.573C620.769 188.198 623.009 191.051 625.301 193.981C629.909 200.096 633.984 206.082 637.625 211.891C643.227 228.554 632.94 245.75 615.523 253.368C634.952 250.515 643.66 233.215 643.559 222.235C652.852 239.763 657.283 255.763 656.875 269.189C656.697 274.182 656.264 278.845 655.602 283.253C651.121 291.71 643.966 294.819 631.234 296.373C642.846 297.086 648.931 296.552 654.023 291.278C646.104 325.239 609.208 354.639 594.134 379.81C609.208 360.244 640.299 331.099 651.274 310.028C652.114 317.646 650.077 337.161 640.605 349.162C654.558 335.43 655.628 314.64 654.736 302.462C658.25 293.698 660.465 283.915 660.822 272.781C661.153 262.539 660.363 253.648 658.836 245.674C667.671 258.208 680.377 263.05 686.667 282.132C685.47 257.495 667.086 257.113 653.31 227.254C647.963 214.107 640.273 202.847 631.692 190.057Z" fill="black"/>
<path fill-rule="evenodd" clip-rule="evenodd" d="M691.48 245.927C702.302 247.635 710.808 247.635 714.856 236.807C675.082 217.852 675.414 178.082 629.707 157.243C654.839 138.593 648.067 121.09 636.379 103.435C624.029 125.294 602.743 128.275 589.68 121.167C608.064 114.466 615.016 91.7411 626.168 85.1171C619.191 77.6263 610.279 77.3717 599.916 84.454C594.314 69.3716 575.828 74.3398 573.052 74.3398C577.89 79.1802 582.474 85.5245 581.608 92.3273C579.699 107.461 555.127 105.014 555.127 105.014C560.092 94.7979 557.876 88.7092 546.851 83.4604C543.49 91.5883 517.111 102.543 515.379 118.593C512.731 143.688 542.445 158.923 568.52 173.064C597.216 188.579 586.701 205.496 576.286 206.031C570.506 223.865 592.608 227.075 605.186 219.839C605.135 222.209 603.532 236.526 584.256 237.699C585.886 243.355 589.069 245.188 594.111 247.049C590.342 249.877 579.342 250.284 573.536 250.284C574.223 258.029 582.652 264.271 593.194 265.316C592.353 267.66 587.669 271.431 583.466 272.602C594.849 283.939 625.455 276.475 631.669 269.953C634.52 266.947 638.009 271.201 634.596 275.736C631.082 280.372 615.703 285.57 603.226 281.722C601.8 288.704 604.194 291.353 606.154 293.239C606.154 293.239 593.958 294.461 590.8 296.169C591.997 301.417 597.904 304.448 599.967 306.512C597.878 308.295 595.409 312.473 594.518 315.684C600.119 318.384 615.346 322.588 623.52 313.263C626.83 309.569 630.446 311.913 627.059 316.627C615.041 333.186 586.294 333.441 576.134 328.269C575.853 341.237 581.455 343.913 588.203 349.262C567.425 373.186 581.15 394.459 566.457 415.401C594.136 415.401 611.451 400.293 616.289 386.153C616.849 391.172 619.496 395.554 626.855 397.057C626.296 391.783 627.925 386.433 630.624 381.032C636.226 385.542 646.437 386.586 659.804 387.146C644.654 361.415 687.534 335.021 670.525 299.939C668.004 294.665 675.388 291.302 676.101 296.678C680.073 326.766 697.745 333.543 712.64 324.168C708.159 319.276 706.3 319.378 703.448 314.919C713.481 317.594 718.574 310.308 721.145 301.187C694.053 291.659 708.694 268.271 691.48 245.927ZM693.772 305.646C694.308 306.512 695.708 316.397 699.501 321.162C679.717 319.887 688.883 278.207 669.099 288.245C663.522 291.048 661.868 297.621 664.439 302.996C677.374 329.798 647.888 353.416 649.544 376.905C642.261 376.855 634.698 376.65 629.988 366.841C627.568 371.734 623.673 378.612 621.56 385.236L615.652 375.173C611.985 391.834 596.452 407.223 575.522 408.624C585.479 392.777 573.51 371.121 597.853 348.116C594.798 345.67 587.795 340.932 585.275 337.721C615.142 341.237 646.258 317.621 632.127 306.41C622.884 299.098 618.809 314.283 604.575 311.734L610.152 306.92C608.191 304.984 605.925 302.461 603.607 300.551C609.694 299.812 616.314 295.939 616.314 295.939L612.698 289.952C647.659 289.901 648.499 263.15 634.367 262.08C627.721 261.596 619.064 273.901 597.548 271.329C600.272 268.016 601.393 262.997 602.717 259.303C597.522 258.819 591.385 258.87 586.497 256.475C597.013 255.125 599.661 251.584 608.395 244.96L598.261 241.24C613.003 233.877 612.062 221.062 612.52 207.713C604.83 212.146 595.714 219.024 586.115 215.84C583.823 215.075 582.321 214.005 582.27 211.61C596.096 206.158 604.907 184.885 571.856 167C550.798 155.612 499.209 130.542 534.145 103.511C538.932 99.843 544.126 96.5305 548.506 92.4291C553.98 96.6324 546.495 107.078 544.635 110.9C544.635 110.9 556.247 112.071 558.996 112.071C576.999 111.995 595.867 101.346 586.318 80.9128C593.474 82.3908 594.314 89.2954 596.503 95.1804C601.087 92.0716 609.032 85.4227 615.219 86.3654C610.203 102.34 589.246 116.734 572.925 119.994C589.399 128.963 619.955 135.638 636.022 116.326C647.277 138.16 631.592 147.281 616.187 158.72C674.854 185.471 666.171 215.534 704.67 239.177C699.705 241.52 677.4 236.807 675.414 236.526C683.816 247.354 687.738 251.94 690.131 257.214C692.474 262.156 693.493 267.711 695.81 279.761C697.643 289.264 700.978 298.741 712.487 305.035C707.981 313.162 697.949 306.741 693.772 305.646Z" fill="black"/>
<path fill-rule="evenodd" clip-rule="evenodd" d="M414.414 371.405L422.792 364.297L421.518 361.749C420.602 359.915 421.086 359.813 422.054 359.1L426.485 355.813C427.502 354.972 428.572 355.074 429.82 355.38L443.085 358.488H429.081C425.847 358.691 424.906 359.94 423.734 362.335L422.767 364.297L419.177 371.685C417.954 374.233 417.317 377.621 420.526 381.442L423.072 384.474L417.928 394.895H422.257L425.822 387.659C426.102 387.404 431.373 382.589 432.493 377.621C430.965 376.373 429.896 375.506 430.737 373.774L432.34 370.309C432.876 369.163 433.053 368.705 434.581 368.984L448.484 371.991C450.216 372.474 452.762 373.239 454.62 370.436C456.531 367.532 456.785 367.838 461.215 368.271L468.319 369.035C478.021 369.953 487.722 367.532 491.491 364.526C492.815 367.532 495.438 369.851 496.66 372.195C497.118 373.061 496.354 374.284 495.769 375.812L487.799 394.869H500.097L507.049 377.494C507.686 375.838 508.627 374.513 509.34 373.851L505.343 394.895H517.285L520.442 374.08C521.13 369.443 520.723 367.966 518.508 366.054C513.542 361.851 513.643 353.036 512.04 347.685C512.88 347.202 513.873 346.946 515.045 347.1C517.642 347.329 519.602 353.979 522.658 358.259C528.768 366.844 537.095 376.322 546.644 362.971C545.727 361.444 544.734 360.067 543.563 358.742L540.89 355.609C539.336 353.877 531.952 345.418 528.87 342.387C521.868 335.329 511.123 336.4 506.845 339.839C497.143 334.743 486.908 340.094 484.489 339.89L467.785 338.87C467.021 338.819 465.876 338.565 465.061 337.266L468.167 336.247C465.265 324.145 457.957 314.03 445.2 312.273C445.2 312.273 444.461 308.451 442.5 307.712L438.681 312.196C437.611 312.349 436.44 312.68 435.472 313.088L419.177 307.024L431.399 319.381C431.399 319.381 425.058 328.374 423.25 330.208C422.054 331.89 422.156 333.189 423.505 334.794L425.873 337.903C427.096 339.508 428.445 339.457 430.405 338.463L433.079 337.062C434.251 336.093 438.171 338.005 439.852 336.476C438.782 339.992 438.248 343.38 437.994 346.056L427.019 344.73C424.625 344.399 423.531 344.73 422.079 345.877L412.709 353.087C409.653 355.431 408.711 359.481 410.596 363.431L414.414 371.405ZM505.062 373.468L497.628 391.812H492.993L500.429 374.054C501.193 371.761 499.741 370.691 497.882 368.194C500.633 369.749 502.619 370.768 505.954 372.042C505.674 372.551 505.317 372.831 505.062 373.468ZM433.359 333.749L431.246 334.871C429.769 335.712 429.03 336.093 427.757 334.514L426.841 333.342C426.383 332.782 426.23 331.432 427.172 330.361L436.287 319.738L427.885 312.833L438.579 316.782L442.5 311.89C443.646 312.859 443.238 315.686 443.238 315.686C447.567 315.686 460.172 321.954 460.655 337.648C460.655 337.648 463.507 341.851 467.148 342.081L485.711 343.201C488.792 343.201 496.482 337.343 506.362 342.871C508.857 341.367 511.53 340.17 514.281 339.864C522.988 339.227 529.406 345.291 534.167 351.405C537.655 355.838 542.443 362.615 542.443 362.615C540.38 365.061 538.368 365.876 536.663 365.264C534.091 363.94 533.25 361.876 532.435 358.998C531.137 354.437 526.121 350.539 526.121 350.539C527.827 353.596 528.183 357.062 528.998 360.246C521.741 353.061 520.366 344.297 515.299 343.075C513.058 342.513 510.436 343.482 508.016 346.284C510.563 352.22 510.436 359.1 513.058 363.71C515.045 367.15 515.477 367.455 516.369 368.22C518.508 369.749 517.31 372.525 516.98 374.539L514.23 391.786H509.595L512.651 374.92C513.593 369.774 499.156 369.774 491.771 359.966C485.482 367.328 467.836 365.494 460.197 364.348C457.116 363.889 454.111 364.093 452.43 367.125C451.438 368.831 449.783 368.322 448.765 368.068L434.836 365.061C432.391 364.5 431.322 364.985 430.252 367.227L427.477 372.985C426.866 374.335 426.892 375.329 428.011 376.424L429.336 377.825C428.547 380.576 426.026 382.691 426.026 382.691L422.995 379.277C421.518 377.544 421.443 375.048 422.614 372.602L427.121 363.175C427.655 362.132 428.623 361.01 430.507 361.01L447.72 360.755L442.449 352.169C438.528 345.724 445.047 334.234 444.053 328.807C443.519 336.068 434.734 332.756 433.359 333.749ZM414.669 355.405L422.818 349.188C424.269 348.093 425.236 347.38 426.892 347.583L438.401 349.112C439.037 351.864 440.871 354.564 440.871 354.564L428.623 351.991C426.892 351.788 426.383 351.864 424.753 353.036L418.947 357.418C417.802 358.31 417.751 359.736 418.413 361.138L419.354 363.15L415.306 366.207L413.752 363.303C412.173 360.22 412.073 357.392 414.669 355.405Z" fill="black"/>
<path fill-rule="evenodd" clip-rule="evenodd" d="M450.168 134.24C454.624 137.323 462.518 140.609 462.518 140.609V135.36L445.126 128.711C445.126 128.711 445.126 130.852 450.168 134.24Z" fill="black"/>
<path fill-rule="evenodd" clip-rule="evenodd" d="M462.489 127.919V122.672L442.756 115.614C442.756 115.614 445.099 118.111 450.141 121.55C454.596 124.608 462.489 127.919 462.489 127.919Z" fill="black"/>
<path fill-rule="evenodd" clip-rule="evenodd" d="M462.494 115.997V110.724L440.875 102.775C440.875 102.775 445.102 106.189 450.144 109.628C454.6 112.711 462.494 115.997 462.494 115.997Z" fill="black"/>
<path fill-rule="evenodd" clip-rule="evenodd" d="M523.218 187.663H545.32C544.403 184.452 540.965 181.217 534.523 181.217C528.413 181.217 524.746 184.733 523.218 187.663Z" fill="black"/>
<path fill-rule="evenodd" clip-rule="evenodd" d="M500.105 102.775L478.538 110.724V115.997C478.538 115.997 486.431 112.711 490.888 109.628C495.904 106.189 500.105 102.775 500.105 102.775Z" fill="black"/>
<path fill-rule="evenodd" clip-rule="evenodd" d="M495.904 128.711L478.538 135.386V140.634C478.538 140.634 486.431 137.323 490.888 134.265C495.904 130.852 495.904 128.711 495.904 128.711Z" fill="black"/>
<path fill-rule="evenodd" clip-rule="evenodd" d="M498.237 115.614L478.504 122.672V127.919C478.504 127.919 486.422 124.633 490.853 121.576C495.895 118.111 498.237 115.614 498.237 115.614Z" fill="black"/>
<path fill-rule="evenodd" clip-rule="evenodd" d="M406.448 181.217C400.006 181.217 396.569 184.452 395.652 187.663H417.78C416.201 184.733 412.585 181.217 406.448 181.217Z" fill="black"/>
<path fill-rule="evenodd" clip-rule="evenodd" d="M514.411 88.6083C514.411 76.1763 493.531 65.0425 470.487 65.0425C447.443 65.0425 426.564 76.1763 426.564 88.6083L427.047 91.6661L436.213 144.48L392.672 169.88C388.038 172.607 382.232 180.096 381.494 187.638H389.438C390.762 180.096 396.695 171.74 407.823 172.25C417.881 172.784 423.838 178.899 429.746 187.638L431.274 189.931L433.464 193.37H369.424C374.135 202.822 378.591 212.86 378.591 223.739V356.958C378.591 391.225 404.895 407.556 433.387 407.556C455.388 407.556 458.366 406.562 470.513 418.714C482.607 406.562 485.587 407.556 507.637 407.556C536.105 407.556 562.434 391.225 562.434 356.958V223.765C562.434 212.886 566.89 202.847 571.6 193.395H507.51L509.725 189.956L511.253 187.663C517.135 178.925 523.119 172.81 533.177 172.275C544.253 171.766 550.237 180.122 551.535 187.663H559.454C558.742 180.122 552.91 172.607 548.302 169.906L504.76 144.505L513.952 91.6911L514.411 88.6083ZM435.475 94.672L467.966 105.729V156.606L444.03 144.022L435.475 94.672ZM443.471 202.619C447.748 208.478 454.675 212.809 462.873 214.49C463.561 217.573 465.242 220.961 468.5 223.688C467.151 232.783 471.047 241.267 480.825 243.509C481.843 248.145 484.721 251.636 489.533 253.292L482.735 261.139C480.137 264.145 476.751 265.113 473.95 264.757L443.598 261.317C444.922 257.954 441.408 254.056 431.808 255.712L443.751 222.338L436.468 206.873L422.667 218.644L421.648 253.649L415.793 250.77C408.077 247.458 405.836 261.393 413.169 261.444L416.072 261.47C415.894 262.897 416.327 264.476 417.447 264.96C416.072 265.547 415.665 268.145 417.396 269.063C415.64 269.878 415.41 272.527 416.811 273.673C415.283 276.247 415.054 281.826 420.375 283.227C424.73 284.374 427.454 279.686 428.345 276.96L475.554 291.584C482.25 293.494 486.987 292.425 492.538 287.559L504.862 276.782C503.309 283.839 505.855 290.183 511.228 292.297C511.228 292.297 510.464 298.641 510.693 301.47H387.783V223.765C387.783 216.529 385.695 209.293 383.2 202.619H443.471ZM494.244 232.095C491.646 237.064 491.901 242.77 494.957 247.942L492.92 249.929C484.059 248.833 480.571 235.611 480.571 235.611C480.392 236.809 480.29 237.955 480.316 239.127C475.146 237.216 471.888 232.631 472.142 226.337C474.103 227.433 476.293 228.198 478.635 228.605L479.247 224.732C473.059 223.662 469.443 219.79 468.068 215.204C467.762 215.178 467.508 215.102 467.227 215.077C468.323 215.153 469.417 215.255 470.538 215.255C474.205 215.255 477.693 214.694 480.952 213.726C483.524 217.395 488.082 220.019 492.665 220.529C491.927 223.586 492.283 227.382 494.244 232.095ZM507.358 267.049C506.466 268.247 505.753 269.623 505.294 271.126L500.355 275.661C501.348 268.426 496.485 259.89 492.054 256.4L497.3 251.254L498.343 252.324C496.586 256.935 500.024 265.98 507.358 267.049ZM483.499 264.783L487.573 260.782C491.697 264.4 497.147 272.476 495.441 280.171L491.01 284.247C490.093 285.138 489.152 285.775 488.184 286.361C490.959 279.507 487.42 268.961 483.499 264.783ZM474.739 268.171H474.867C476.344 268.4 477.922 268.145 479.348 267.559C482.454 271.992 484.874 282.081 481.156 288.374C479.043 288.425 476.98 288.043 475.044 287.483L473.517 287.023C476.649 282.158 476.216 273.547 474.739 268.171ZM464.478 266.897L470.207 267.61C471.124 272.374 470.513 280.603 467.482 285.292L460.811 283.355C463.739 279.381 465.114 271.203 464.478 266.897ZM452.536 265.445L459.487 266.26C460.174 270.081 458.876 278.208 456.253 282.081L449.174 280.043C452 276.298 453.019 269.699 452.536 265.445ZM424.399 263.584C421.165 264.629 419.739 262.285 419.867 260.298C426.207 257.98 429.033 259.483 430.892 260.655C432.598 261.725 434.024 264.783 436.315 266.693C435.934 269.291 435.145 273.062 434.202 275.585C427.709 273.928 427.378 268.196 429.797 264.706C428.447 263.126 427.022 262.718 424.399 263.584ZM419.867 276.247C419.867 276.247 421.801 277.062 424.246 277.241C423.966 278.591 422.922 279.865 421.267 279.507C419.892 279.202 419.281 277.52 419.867 276.247ZM413.475 257.648C411.871 256.579 412.584 254.235 414.367 254.235C416.327 254.286 418.924 256.502 421.496 257.597C421.496 257.597 414.748 258.515 413.475 257.648ZM420.071 271.152C421.471 272.502 425.672 271.992 425.672 271.992L425.825 272.833C423.991 275.278 418.899 274.183 420.071 271.152ZM425.723 268.375C422.718 269.572 419.637 267.941 420.579 266.005C421.98 267.279 425.876 266.642 425.876 266.642L425.723 268.375ZM430.154 233.395L424.399 254.362L426.36 220.529L435.271 212.912L439.804 222.873L428.345 255.738L431.376 233.624C431.656 232.044 430.408 231.866 430.154 233.395ZM430.561 258.821C430.561 258.821 436.977 258.515 438.786 259.202C440.11 259.763 439.218 262.005 437.486 261.751C435.679 261.521 430.561 258.821 430.561 258.821ZM440.619 263.916L447.595 264.783C448.131 268.603 447.137 275.075 444.641 278.693L437.894 276.731C439.676 272.476 440.11 268.477 440.619 263.916ZM553.242 356.984C553.242 373.186 545.755 385.493 533.305 392.32L537.76 383.25H533.431L527.702 394.868C521.77 397.11 515.047 398.358 507.612 398.358C484.899 398.358 478.89 399.275 470.487 407.657C462.058 399.275 456.05 398.358 433.362 398.358C425.977 398.358 419.256 397.161 413.348 394.919H413.501L419.23 383.25H414.927L409.911 393.467C408.713 392.906 407.542 392.294 406.422 391.632L410.547 383.25H406.269L403.214 389.492C393.486 382.333 387.757 371.123 387.757 356.984V306.029H553.191V356.984H553.242ZM557.85 202.619C555.279 209.293 553.216 216.529 553.216 223.765V301.47H544.176C540.077 297.495 536.614 284.247 536.614 284.247C534.374 289.011 536.945 298.666 539.339 301.47H527.702C524.825 297.571 522.33 283.763 522.33 283.763C518.842 287.737 521.057 298.463 523.221 301.47H515.48C514.996 295.941 516.575 289.928 516.575 289.928C512.526 289.189 508.223 287.049 508.248 282.565C510.285 284.476 511.126 284.451 513.952 284.4L517.237 281.8C506.339 282.158 505.83 270.183 514.487 264.578C505.855 264.858 499.413 259.713 502.545 250.54C496.409 247.355 494.244 236.962 498.776 232.401C495.492 228.834 494.957 221.828 497.045 217.064C492.691 217.064 487.802 215.331 485.077 212.35C484.874 212.452 484.619 212.529 484.389 212.605C489.839 210.389 494.447 206.924 497.554 202.644H557.85V202.619ZM524.901 165.218C515.939 166.773 508.223 177.752 501.908 187.663L501.195 188.809H494.447L494.423 189.982C493.734 197.624 486.478 207.994 470.487 207.994C463.103 207.994 457.527 205.726 453.707 202.644C450.397 199.943 448.308 196.606 447.29 193.421C446.908 192.275 446.679 191.102 446.577 189.982L446.526 188.809H439.829L439.116 187.663C432.776 177.778 425.061 166.797 416.123 165.218L440.542 151.027L470.538 167.333L500.482 151.027L524.901 165.218ZM496.943 144.022L473.033 156.606V105.729L505.524 94.672L496.943 144.022ZM470.513 100.175L434.992 86.1377C437.996 79.0034 451.924 72.9147 470.513 72.9147C489.075 72.9147 502.978 79.0034 505.982 86.1377L470.513 100.175Z" fill="black"/>
<path fill-rule="evenodd" clip-rule="evenodd" d="M549.447 252.833L549.523 248.934C537.581 248.654 534.832 234.565 534.832 234.565C531.342 244.934 540.459 252.679 549.447 252.833Z" fill="black"/>
<path fill-rule="evenodd" clip-rule="evenodd" d="M534.371 276.704L533.175 273.011C522.99 275.609 517.72 259.457 517.72 259.457C514.46 271.202 525.816 279.508 534.371 276.704Z" fill="black"/>
<path fill-rule="evenodd" clip-rule="evenodd" d="M541.452 261.724C529.281 263.66 524.291 249.496 524.291 249.496C522.941 257.215 527.932 265.036 536.004 265.851C534.17 275.916 543.515 281.086 551.612 277.494L550.441 273.979C543.413 276.348 536.819 269.392 541.452 261.724Z" fill="black"/>
<path fill-rule="evenodd" clip-rule="evenodd" d="M534.168 221.293L534.27 217.395C518.202 214.083 519.552 203.026 519.552 203.026C516.089 213.446 525.204 221.141 534.168 221.293Z" fill="black"/>
<path fill-rule="evenodd" clip-rule="evenodd" d="M432.367 383.25L426.613 394.919H430.941L436.671 383.25H432.367Z" fill="black"/>
<path fill-rule="evenodd" clip-rule="evenodd" d="M441.051 383.25L435.322 394.919H439.676L445.354 383.25H441.051Z" fill="black"/>
<path fill-rule="evenodd" clip-rule="evenodd" d="M475.834 383.25L470.104 394.919H474.408L480.162 383.25H475.834Z" fill="black"/>
<path fill-rule="evenodd" clip-rule="evenodd" d="M484.54 383.25L478.76 394.919H483.114L488.817 383.25H484.54Z" fill="black"/>
<path fill-rule="evenodd" clip-rule="evenodd" d="M467.149 383.25L461.396 394.919H465.723L471.452 383.25H467.149Z" fill="black"/>
<path fill-rule="evenodd" clip-rule="evenodd" d="M517.947 394.919H522.275L528.005 383.25H523.676L517.947 394.919Z" fill="black"/>
<path fill-rule="evenodd" clip-rule="evenodd" d="M449.76 383.25L444.031 394.919H448.359L454.088 383.25H449.76Z" fill="black"/>
<path fill-rule="evenodd" clip-rule="evenodd" d="M458.416 383.25L452.687 394.919H457.041L462.77 383.25H458.416Z" fill="black"/>
<path fill-rule="evenodd" clip-rule="evenodd" d="M438.759 320.527C437.97 320.527 437.282 321.291 437.282 322.285C437.282 323.253 437.97 324.043 438.759 324.043C439.574 324.043 440.287 323.253 440.287 322.285C440.262 321.291 439.574 320.527 438.759 320.527Z" fill="black"/>
<path fill-rule="evenodd" clip-rule="evenodd" d="M470.513 57.1706C488.337 57.1706 502.621 63.0805 510.489 69.4249C510.489 69.4249 512.858 55.2592 520.828 42.8272L506.466 44.432L498.954 28.4319L484.517 35.9476L470.513 22.0376L456.508 35.9476L442.019 28.4319L434.508 44.432L420.146 42.8272C428.142 55.2592 430.484 69.4249 430.484 69.4249C438.378 63.0805 452.688 57.1706 470.513 57.1706ZM436.977 50.8013L443.828 36.2791L456.508 43.0309L470.513 29.1968L484.517 43.0309L497.198 36.2791L503.971 50.8013L512.4 49.5021C510.235 53.5525 508.605 57.0937 507.103 62.0619C497.886 56.6863 484.186 52.534 470.513 52.534C456.788 52.534 443.115 56.6863 433.896 62.0619C432.369 57.0937 430.765 53.5525 428.575 49.5021L436.977 50.8013Z" fill="black"/>
<path fill-rule="evenodd" clip-rule="evenodd" d="M485.178 28.5595C487.265 28.7383 489.124 27.1584 489.302 25.0942C489.506 23.0051 486.45 17.4517 486.45 17.4517C486.45 17.4517 481.892 22.369 481.739 24.4581C481.536 26.4963 483.114 28.3558 485.178 28.5595Z" fill="black"/>
<path fill-rule="evenodd" clip-rule="evenodd" d="M508.703 37.0955C510.563 38.0881 512.829 37.3501 513.822 35.4896C514.84 33.6552 514.178 27.3628 514.178 27.3628C514.178 27.3628 508.118 30.0891 507.126 31.9485C506.158 33.783 506.871 36.0759 508.703 37.0955Z" fill="black"/>
<path fill-rule="evenodd" clip-rule="evenodd" d="M455.822 28.5595C457.935 28.3558 459.488 26.5213 459.31 24.4581C459.107 22.369 454.6 17.4517 454.6 17.4517C454.6 17.4517 451.569 23.031 451.748 25.0942C451.901 27.1584 453.759 28.7383 455.822 28.5595Z" fill="black"/>
<path fill-rule="evenodd" clip-rule="evenodd" d="M432.317 37.0955C434.176 36.0759 434.864 33.783 433.896 31.9485C432.928 30.0891 426.843 27.3628 426.843 27.3628C426.843 27.3628 426.207 33.6552 427.225 35.4896C428.167 37.3501 430.459 38.0881 432.317 37.0955Z" fill="black"/>
<path fill-rule="evenodd" clip-rule="evenodd" d="M714.576 166.518C719.592 164.734 723.462 159.945 725.397 155.512C712.641 153.678 678.748 139.436 650.892 151.028C661.333 141.118 670.703 139.844 671.593 125.577C675.922 128.685 683.23 130.443 687.356 123.03C684.479 114.545 677.221 121.424 676.203 119.08C674.777 115.819 685.343 120.074 687.61 109.043C679.386 106.214 676.941 112.94 675.464 111.386C674.115 109.908 680.684 107.08 675.847 98.1895C667.29 103.208 671.746 108.839 669.939 109.475C667.749 110.342 669.48 103.437 660.008 103.769C659.066 113.934 668.895 114.265 667.29 115.87C665.33 117.832 662.784 110.036 655.629 113.985C655.755 122.189 662.401 126.697 669.252 124.761C668.131 140.354 653.821 137.449 643.177 155.028C665.738 166.595 675.948 186.772 689.825 200.734C694.409 197.473 702.251 183.002 702.251 183.002C717.274 194.645 727.841 183.052 727.841 183.052C722.673 177.754 722.469 173.728 714.576 166.518ZM692.677 169.346C694.23 172.786 697.312 184.785 689.953 193.932C681.576 177.193 670.066 162.85 660.746 156.659C658.709 155.334 661.867 153.016 667.622 152.252C684.962 148.965 705.307 156.302 714.983 158.876C710.475 162.238 706.81 163.767 702.2 164.327C709.228 170.238 714.372 175.231 717.987 180.786C711.189 182.492 707.344 178.187 692.677 169.346Z" fill="black"/>
<path fill-rule="evenodd" clip-rule="evenodd" d="M547.819 429.568V410.511C533.101 417.262 514.385 422.739 490.298 424.906L489.203 431.708C491.239 431.988 493.837 432.243 497.3 432.472C488.388 433.696 476.853 434.281 470.538 434.281C464.198 434.281 452.689 433.696 443.751 432.472C447.188 432.243 449.786 431.988 451.823 431.708L450.729 424.906C426.64 422.739 407.899 417.262 393.207 410.511V429.568L373.244 437.771C388.039 445.465 405.048 451.733 424.705 456.803L422.362 464.777C433.617 468.09 451.619 471.452 470.487 471.452C489.356 471.452 507.332 468.064 518.612 464.777L516.296 456.803C535.927 451.733 552.988 445.465 567.781 437.771L547.819 429.568ZM383.913 438.204L397.384 432.778V417.262C406.041 420.599 417.397 424.065 433.693 427.453L426.055 452.344C409.427 448.522 395.296 443.376 383.913 438.204ZM470.513 466.891C455.311 466.891 440.467 464.624 427.786 461.491L435.858 435.376C441.205 436.625 454.598 438.255 470.513 438.255C486.453 438.255 499.769 436.6 505.142 435.376L513.24 461.491C500.508 464.624 485.689 466.891 470.513 466.891ZM514.996 452.344L507.358 427.453C523.654 424.091 535.011 420.599 543.669 417.262V432.778L557.113 438.204C545.731 443.376 531.649 448.522 514.996 452.344Z" fill="black"/>
<path fill-rule="evenodd" clip-rule="evenodd" d="M238.77 183.002C238.77 183.002 246.612 197.473 251.171 200.734C265.074 186.798 275.309 166.62 297.844 155.028C287.175 137.449 272.865 140.405 271.795 124.761C278.645 126.697 285.266 122.163 285.418 113.985C278.237 110.036 275.692 117.883 273.757 115.87C272.152 114.215 281.955 113.934 281.039 103.769C271.567 103.463 273.298 110.342 271.082 109.475C269.3 108.839 273.757 103.183 265.176 98.1895C260.363 107.106 266.958 109.908 265.583 111.386C264.131 112.94 261.635 106.239 253.437 109.043C255.652 120.074 266.27 115.819 264.844 119.08C263.825 121.424 256.594 114.545 253.742 123.03C257.817 130.468 265.15 128.711 269.453 125.602C270.369 139.894 279.714 141.092 290.18 151.028C262.298 139.436 228.407 153.678 215.598 155.538C217.56 159.945 221.43 164.735 226.446 166.467C218.552 173.754 218.349 177.779 213.18 183.052C213.18 183.052 223.721 194.645 238.77 183.002ZM222.983 180.811C226.624 175.257 231.742 170.238 238.821 164.353C234.187 163.767 230.546 162.238 226.013 158.876C235.714 156.302 256.085 148.939 273.451 152.252C279.154 153.016 282.363 155.334 280.275 156.659C270.956 162.85 259.421 177.193 251.043 193.932C243.71 184.785 246.816 172.811 248.319 169.372C233.677 178.187 229.859 182.492 222.983 180.811Z" fill="black"/>
<path fill-rule="evenodd" clip-rule="evenodd" d="M458.313 172.377V180.76C461.19 177.269 466.793 177.957 466.793 177.957V190.059C466.793 190.059 466.589 196.02 464.501 198.568H470.536H476.57C474.457 196.02 474.278 190.059 474.278 190.059V177.982C474.278 177.982 479.855 177.294 482.733 180.784V172.403H470.536H458.313V172.377Z" fill="black"/>
<path d="M64.5526 676.192V612.908H101.907V589.879H0V612.908H37.3531V676.192H64.5526ZM139.084 640.108V589.879H112.792V676.192H136.002L181.334 625.964V676.192H207.627V589.879H184.417L139.084 640.108ZM296.082 644.097V676.192H322.374V589.879H296.082V621.43H253.831V589.879H227.539V676.192H253.831V644.097H296.082ZM395.597 676.192C401.581 676.192 407.021 675.648 412.098 674.197C425.698 670.389 434.583 659.328 434.583 644.278C434.583 629.953 426.967 619.98 414.818 615.446C409.016 613.271 402.126 613.089 395.597 613.089H368.58V589.879H342.287V676.192H395.597ZM391.064 633.399C394.691 633.399 398.135 633.399 401.218 634.486C405.57 635.937 408.109 639.563 408.109 643.915C408.109 648.449 405.57 652.256 401.4 654.07C398.498 655.339 395.597 655.339 391.064 655.339H368.58V633.399H391.064ZM481.725 643.552L513.096 676.192H548.092L504.392 631.222L546.46 589.879H513.458L481.725 622.338H474.472V589.879H448.179V676.192H474.472V643.552H481.725ZM602.193 587.522C566.835 587.522 545.619 607.468 545.619 633.217C545.619 658.965 566.835 678.912 602.193 678.912C637.371 678.912 658.587 658.965 658.587 633.217C658.587 607.468 637.371 587.522 602.193 587.522ZM602.193 657.878C584.605 657.878 573.362 647.36 573.362 633.217C573.362 619.073 584.605 608.737 602.193 608.737C619.601 608.737 631.024 619.073 631.024 633.217C631.024 647.36 619.601 657.878 602.193 657.878ZM746.15 584.983H719.858V593.687C686.856 594.413 667.091 608.375 667.091 633.036C667.091 657.696 686.856 670.571 719.858 671.296V680H746.15V671.296C779.333 670.571 799.098 657.696 799.098 633.036C799.098 608.375 779.333 594.413 746.15 593.687V584.983ZM719.858 652.801C701.725 652.075 693.746 644.64 693.746 633.036C693.746 621.43 701.725 613.089 719.858 612.364V652.801ZM746.15 612.364C764.465 613.089 772.261 621.43 772.261 633.036C772.261 644.64 764.465 652.075 746.15 652.801V612.364ZM886.574 584.983H860.281V593.687C827.279 594.413 807.515 608.375 807.515 633.036C807.515 657.696 827.279 670.571 860.281 671.296V680H886.574V671.296C919.753 670.571 939.522 657.696 939.522 633.036C939.522 608.375 919.753 594.413 886.574 593.687V584.983ZM860.281 652.801C842.148 652.075 834.169 644.64 834.169 633.036C834.169 621.43 842.148 613.089 860.281 612.364V652.801ZM886.574 612.364C904.89 613.089 912.685 621.43 912.685 633.036C912.685 644.64 904.89 652.075 886.574 652.801V612.364Z" fill="black"/>
</svg>
