<svg xmlns="http://www.w3.org/2000/svg" xml:space="preserve" id="Layer_1" x="0" y="0" style="enable-background:new 0 0 2500 2500" version="1.1" viewBox="0 0 2500 2500"><style>.st0,.st3{fill-rule:evenodd;clip-rule:evenodd;fill:#010101}.st3{fill:#fff}</style><path d="M250 0h2000c138.1 0 250 111.9 250 250v2000c0 138.1-111.9 250-250 250H250c-138.1 0-250-111.9-250-250V250C0 111.9 111.9 0 250 0z" class="st0"/><path d="M1569.8 2300c76.1 0 137.7-61.2 137.7-136.6 0-75.4-61.7-136.6-137.7-136.6h-20.7c76.1 0 137.7 61.2 137.7 136.6 0 75.5-61.7 136.6-137.7 136.6h20.7z" style="fill-rule:evenodd;clip-rule:evenodd;fill:#ee1d51"/><path d="M1547.2 2026.8h-20.8c-76.1 0-137.7 61.2-137.7 136.6 0 75.5 61.7 136.6 137.7 136.6h20.8c-76.1 0-137.7-61.2-137.7-136.6-.1-75.5 61.6-136.6 137.7-136.6z" style="fill-rule:evenodd;clip-rule:evenodd;fill:#66c8cf"/><ellipse cx="1548.1" cy="2163.4" class="st0" rx="67" ry="66.4"/><path d="M500 1965v69.2h81.1v263.9h81.1v-262h66l22.6-71.1H500zm664.2 0v69.2h81.1v263.9h81.1v-262h66l22.6-71.1h-250.8zM766 2004.3c0-21.7 17.7-39.3 39.6-39.3 21.9 0 39.6 17.6 39.6 39.3s-17.7 39.3-39.6 39.3c-21.8 0-39.6-17.6-39.6-39.3zm0 67.4h79.2v226.5H766v-226.5zM879.2 1965v333.1h79.2V2212l24.5-22.5 77.3 110.4h84.9L1033.8 2139l100-97.3h-96.2l-79.2 78.6V1965h-79.2zm854.7 0v333.1h79.3V2212l24.5-22.5 77.4 110.4h84.9L1888.7 2139l100-97.3h-96.2l-79.2 78.6V1965h-79.4z" class="st3"/><path d="M1611.7 811.9c109.4 78.2 243.5 124.2 388.3 124.2V657.5c-27.4 0-54.7-2.8-81.6-8.5v219.2c-144.8 0-278.8-46-388.3-124.2v568.3c0 284.3-230.6 514.8-515.1 514.8-106.1 0-204.8-32.1-286.7-87.1 93.5 95.6 224 154.9 368.3 154.9 284.5 0 515.1-230.5 515.1-514.8V811.9zm100.6-281c-55.9-61.1-92.6-140-100.6-227.3v-35.8h-77.3c19.4 110.9 85.8 205.7 177.9 263.1zm-804 991.1c-31.2-41-48.1-91.1-48.1-142.6 0-130 105.5-235.5 235.6-235.5 24.2 0 48.4 3.7 71.5 11V870.2c-27-3.7-54.3-5.3-81.5-4.7v221.6c-23.1-7.3-47.2-11-71.5-11-130.1 0-235.6 105.4-235.6 235.5 0 92 52.7 171.6 129.6 210.4z" style="fill-rule:evenodd;clip-rule:evenodd;fill:#ee1d52"/><path d="M1530.1 744c109.5 78.2 243.5 124.2 388.3 124.2V649c-80.8-17.2-152.4-59.4-206.2-118.1-92.1-57.4-158.4-152.2-177.9-263.1h-203v1112.4c-.5 129.7-105.8 234.7-235.6 234.7-76.5 0-144.5-36.5-187.5-92.9-76.9-38.8-129.6-118.4-129.6-210.3 0-130.1 105.5-235.5 235.6-235.5 24.9 0 49 3.9 71.5 11V865.5c-279.5 5.8-504.2 234-504.2 514.7 0 140.1 56 267.1 146.8 359.9 82 55 180.6 87.1 286.7 87.1 284.4 0 515.1-230.5 515.1-514.8V744z" class="st3"/><path d="M1918.4 649v-59.3c-72.9.1-144.3-20.3-206.2-58.9 54.8 60 126.9 101.3 206.2 118.2zm-384-381.2c-1.9-10.6-3.3-21.3-4.3-32V200h-280.3v1112.4c-.5 129.7-105.7 234.7-235.6 234.7-38.1 0-74.1-9-106-25.1 43 56.5 111 92.9 187.5 92.9 129.8 0 235.2-105 235.6-234.7V267.8h203.1zm-448.6 597.7v-63.1c-23.4-3.2-47-4.8-70.7-4.8-284.5 0-515.1 230.5-515.1 514.8 0 178.2 90.6 335.3 228.3 427.7-90.8-92.8-146.8-219.8-146.8-359.9 0-280.7 224.8-508.9 504.3-514.7z" style="fill-rule:evenodd;clip-rule:evenodd;fill:#69c9d0"/><path d="M1549 2300c76.1 0 137.8-61.2 137.8-136.6 0-75.4-61.7-136.6-137.8-136.6h-1.9c-76.1 0-137.7 61.2-137.7 136.6 0 75.5 61.7 136.6 137.7 136.6h1.9zm-67.9-136.6c0-36.7 30-66.4 67-66.4s67 29.7 67 66.4-30 66.5-67 66.5c-37-.1-67-29.8-67-66.5z" class="st3"/></svg>