<svg xmlns="http://www.w3.org/2000/svg" width="940" height="680" fill="none"><path fill="#fff" d="M735.147 175.919c-1.477-1.503-2.342-2.879-3.565-4.79a217.592 217.592 0 0 0-2.088-3.134 32.752 32.752 0 0 0 5.246-8.382l5.399-12.305-13.292-1.911c-2.241-.331-5.857-1.274-10.084-2.394-8.148-2.14-18.613-4.893-30.02-6.09 3.895-1.707 7.206-4.79 9.522-8.968l2.19-3.948s-.586-5.529-2.724-7.261c.815-1.707 1.451-3.593 1.885-5.657l1.807-8.815-8.505-2.904a22.917 22.917 0 0 0-3.947-.993c-.483-1.605-1.196-3.313-2.164-5.121l-5.042-9.249-9.09 5.325c-2.266 1.325-4.175 2.854-5.729 4.56a23.405 23.405 0 0 0-4.329-.382s-5.194-.586-10.923 1.503l-7.334-7.617-8.683-9.274c-8.122-8.687-19.122-11.26-30.326-6.98-4.278-4.28-10.949-7.822-21.312-7.822-3.514 0-6.596.433-8.403.663 0 0-14.26 2.598-22.28 10.216l-9.727-4.637c-6.519 10.267-17.671 13.528-17.671 13.528a24.526 24.526 0 0 0-3.922-8.382l.637-3.617c0-.102 2.189-12.356 8.861-22.751l11.611-18.09-16.449 1.861c.05-1.63-.025-3.567-.255-5.86l-1.477-14.064-12.884 5.835c-1.426.636-2.623 1.274-3.743 1.86l-2.546-5.427-5.907 3.057a47.424 47.424 0 0 0-2.394-5.018L488.692 0l-9.651 10.42a39.202 39.202 0 0 0-2.547 3.007l-5.856-5.835-5.907 5.86a46.208 46.208 0 0 0-2.547-3.006L452.432 0l-6.825 12.535a46.71 46.71 0 0 0-2.367 4.993l-5.882-3.057-2.547 5.427c-1.12-.586-2.317-1.224-3.743-1.886l-12.935-5.809-1.426 14.115c-.229 2.267-.305 4.177-.254 5.808l-16.475-1.86 11.636 18.089c6.697 10.37 8.836 22.624 8.836 22.726l.611 3.617c-1.858 2.6-3.182 5.402-3.921 8.407 0 0-10.542-4.508-17.595-13.553l-9.93 4.738c-11.331-7.642-18.36-10.623-30.582-10.98-10.363-.28-17.034 3.542-21.312 7.822-11.229-4.255-22.204-1.682-30.301 7.006 0 0-5.322 5.783-8.683 9.274-3.361 3.515-8.326 6.42-8.326 6.42s-7.054-1.58-14.31.076c-1.553-1.707-3.489-3.236-5.78-4.586l-9.117-5.325-5.016 9.3c-.967 1.783-1.655 3.465-2.113 5.07a22.976 22.976 0 0 0-3.946.993l-8.455 2.955 1.758 8.764c.432 2.115 1.043 4.001 1.883 5.707a22.54 22.54 0 0 0-1.272 2.981l-1.426 4.255 2.164 3.949c2.292 4.152 5.576 7.261 9.498 8.968-11.433 1.197-21.873 3.949-30.046 6.089-4.202 1.095-7.818 2.064-10.058 2.394l-13.343 1.937 3.03 6.878 2.419 5.478a34.995 34.995 0 0 0 5.271 8.331c-.79 1.121-4.151 6.395-5.653 7.898l-6.748 6.853 6.468 7.133c.815.867 8.072 8.485 19.81 8.51 3.208 0 6.391-.56 9.549-1.681 3.131 4.892 6.849 9.86 10.235 12.305-6.238 7.337-13.342 13.707-23.45 18.522l-8.454 4.026 3.641 9.655c2.368 5.834 6.977 12.229 15.889 14.674-1.91 5.708-2.826 11.109-3.641 15.924-1.91 11.439-2.725 16.177-12.783 19.719l-9.039 3.159 2.597 9.223c2.088 7.515 5.22 12.484 8.606 15.77l-6.008 6.624s14.259 10.701 28.238 12c.203.026 12.12.79 17.467-6.038 2.139 7.744 5.526 14.879 8.607 21.35 6.315 13.299 9.676 21.171 5.449 28.355l-9.549 16.204 18.767-.79c8.199-.332 15.812-.841 22.407-2.472 0 .358-.025.688-.051 1.02l-1.528 13.91 16.449-3.464a25.69 25.69 0 0 0 4.839-1.988c10.184 11.923 27.499 21.222 50.824 21.222h1.349l-26.813 11.006 19.53 10.166c12.859 6.7 27.145 12.306 43.441 17.069l-2.267 7.823 9.804 2.878c5.653 1.656 26.099 7.083 51.002 7.083 24.903 0 45.324-5.427 51.002-7.083l9.778-2.878-2.267-7.797c16.323-4.764 30.608-10.369 43.466-17.069l19.53-10.166-26.838-11.006h1.35c23.324 0 40.613-9.299 50.799-21.223a25.726 25.726 0 0 0 4.837 1.988l16.449 3.465-1.502-13.885c-.026-.332-.05-.688-.05-1.045 6.569 1.631 14.208 2.114 22.381 2.472l18.766.789-9.497-16.178c-4.253-7.184-.866-15.056 5.424-28.355 3.081-6.471 6.467-13.606 8.606-21.35 3.616 2.751 7.512 4.407 11.382 5.274 0 0 3.005.892 5.882.967 8.301.255 12.452-2.114 18.155-5.706l10.364-6.522-6.061-6.624c3.387-3.261 6.519-8.23 8.607-15.719l2.622-9.249-9.064-3.158c-10.084-3.543-10.873-8.281-12.782-19.721-.815-4.814-1.707-10.24-3.642-15.923 8.912-2.47 13.495-8.866 15.864-14.674l3.616-9.681-8.454-4.026c-10.109-4.814-17.214-11.184-23.477-18.522 3.411-2.445 7.129-7.414 10.287-12.305a28.764 28.764 0 0 0 9.549 1.682c11.738 0 19.02-7.618 19.81-8.485l6.467-7.133-6.748-6.929Z"/><path fill="#FFDD2D" fill-rule="evenodd" d="M387.787 301.469v-77.705c0-7.235-2.088-14.472-4.584-21.12h60.272c5.525 7.591 15.557 12.686 27.067 12.686 11.458 0 21.49-5.095 27.041-12.686h60.271c-2.547 6.674-4.609 13.885-4.609 21.12v77.705H387.787Zm82.729 106.187c-8.428-8.381-14.438-9.299-37.15-9.299-27.144 0-45.579-15.923-45.579-41.374v-50.954H553.22v50.954c0 25.451-18.41 41.374-45.604 41.374-22.688-.025-28.698.918-37.1 9.299Z" clip-rule="evenodd"/><path fill="#fff" d="M397.383 417.263v15.516l-13.469 5.426c11.381 5.172 25.514 10.318 42.115 14.114l7.639-24.891c-16.295-3.337-27.653-6.827-36.285-10.165Zm73.126 21.019c-15.915 0-29.308-1.656-34.655-2.879l-8.072 26.114c12.681 3.108 27.525 5.401 42.727 5.401 15.15 0 29.995-2.267 42.727-5.401l-8.097-26.114c-5.348 1.248-18.69 2.879-34.63 2.879Zm73.133-21.019c-8.657 3.338-19.988 6.803-36.285 10.191l7.665 24.891c16.628-3.797 30.708-8.943 42.09-14.114l-13.444-5.427v-15.541h-.026ZM369.167 166.95c21.083-11.388 72.62-36.457 37.684-63.489-4.761-3.668-10.006-6.98-14.412-11.082-5.448 4.203 2.038 14.649 3.922 18.471 0 0-11.637 1.171-14.412 1.171-17.977-.076-36.82-10.725-27.271-31.132-7.155 1.478-8.021 8.356-10.21 14.241-4.584-3.108-12.554-9.782-18.69-8.84 4.99 15.973 25.998 30.369 42.293 33.629-16.474 8.968-47.03 15.643-63.096-3.669-11.281 21.835 4.43 30.955 19.835 42.394-58.641 26.777-49.983 56.814-88.458 80.457 4.99 2.343 27.245-2.369 29.231-2.65-8.352 10.828-12.248 15.414-14.692 20.688-2.343 4.942-3.387 10.522-5.703 22.547-1.809 9.503-5.119 18.98-16.679 25.273 4.533 8.203 14.591 1.783 18.792.688-.561.866-1.987 10.751-5.755 15.515 19.759-1.274 10.618-42.954 30.378-32.916 5.576 2.803 7.257 9.376 4.684 14.751-12.986 26.802 16.526 50.419 14.921 73.909 7.258-.051 14.77-.254 19.505-10.063 2.471 4.891 6.29 11.77 8.429 18.394l5.907-10.063c3.641 16.662 19.174 32.05 40.156 33.426-10.007-15.847 1.986-37.477-22.331-60.483 3.029-2.446 10.032-7.159 12.527-10.369-29.842 3.516-60.984-20.102-46.852-31.311 9.243-7.312 13.292 7.872 27.551 5.324l-5.576-4.815c1.96-1.937 4.201-4.458 6.518-6.369-6.06-.738-12.681-4.611-12.681-4.611l3.616-5.988c-34.96-.051-35.852-26.801-21.644-27.871 6.672-.484 15.304 11.821 36.82 9.247-2.75-3.311-3.844-8.33-5.144-12.024 5.195-.484 11.307-.433 16.221-2.828-10.516-1.35-13.165-4.892-21.924-11.515l10.16-3.72c-14.743-7.363-13.852-20.178-14.31-33.529 7.715 4.433 16.78 11.313 26.455 8.128 2.292-.765 3.769-1.834 3.82-4.229-13.801-5.528-22.661-26.802 10.415-44.687Zm-25.183 2.089c-18.461 19.745-10.466 31.566-6.748 35.209-6.876-1.477-17.136-10.242-14.795-18.725-2.188 2.624-4.429 5.477-6.721 8.407a261.04 261.04 0 0 0-12.324 17.911c-5.602 16.661 4.659 33.859 22.127 41.476-19.403-2.853-28.111-20.126-28.06-31.132-9.269 17.528-13.7 33.527-13.292 46.954.178 4.993.611 9.655 1.273 14.062 4.457 8.459 11.612 11.568 24.368 13.121-11.585.739-17.722.204-22.763-5.095 7.893 33.961 44.814 63.361 59.838 88.532-15.05-19.566-46.19-48.711-57.088-69.781-.841 7.617 1.196 27.133 10.668 39.132-13.954-13.731-15.048-34.521-14.131-46.699-3.54-8.764-5.78-18.547-6.086-29.68-.281-10.242.432-19.133 1.986-27.108-8.811 12.535-21.542 17.375-27.806 36.458 1.222-24.612 19.582-24.993 33.332-54.878 5.321-13.069 13.061-24.356 21.618-37.145-10.873 3.567-19.021 6.114-31.601 19.897 8.938-21.146 60.577-44.915 84.233-67.922-7.105 1.504-36.107 2.242-48.151-5.808 21.822 5.91 70.38-.841 88.713-13.376-12.655 18.216-40.206 19.261-73.74 55.49 4.277-3.415 9.981-6.854 15.15-9.3Zm351.825 110.649c-2.316-12.025-3.335-17.605-5.678-22.547-2.418-5.274-6.34-9.859-14.717-20.688 1.986.281 24.292 4.995 29.257 2.651-38.475-23.643-29.818-53.681-88.484-80.457 15.405-11.439 31.116-20.56 19.835-42.419-16.066 19.337-46.622 12.662-63.097 3.669 16.322-3.262 37.303-17.63 42.294-33.63-6.162-.943-14.132 5.732-18.715 8.814-2.19-5.885-3.031-12.763-10.186-14.266 9.549 20.432-9.319 31.081-27.321 31.158-2.75 0-14.361-1.172-14.361-1.172 1.859-3.822 9.345-14.267 3.87-18.47-4.405 4.127-9.599 7.413-14.386 11.082-34.961 27.031 16.627 52.126 37.71 63.488 33.026 17.885 24.241 39.159 10.415 44.61.051 2.395 1.528 3.466 3.845 4.23 9.624 3.21 18.741-3.668 26.405-8.127-.433 13.35.483 26.19-14.259 33.528l10.134 3.719c-8.759 6.624-11.383 10.166-21.899 11.516 4.889 2.395 11.052 2.344 16.221 2.828-1.325 3.694-2.47 8.713-5.169 12.025 21.541 2.547 30.199-9.732 36.819-9.249 14.157 1.071 13.317 27.821-21.669 27.872l3.616 5.987s-6.621 3.873-12.707 4.612c2.318 1.885 4.584 4.433 6.544 6.369l-5.576 4.816c14.234 2.547 18.309-12.637 27.551-5.325 14.132 11.21-16.984 34.826-46.851 31.311 2.52 3.21 9.523 7.949 12.552 10.395-24.342 22.98-12.374 44.635-22.331 60.507 20.931-1.401 36.464-16.789 40.156-33.451l5.907 10.063c2.113-6.624 5.984-13.502 8.403-18.394 4.71 9.809 12.273 10.013 19.556 10.064-1.656-23.49 27.831-47.107 14.895-73.909-2.596-5.35-.917-11.923 4.661-14.751 19.809-10.039 10.617 31.643 30.402 32.916-3.794-4.765-5.194-14.649-5.73-15.515 4.176 1.096 14.21 7.515 18.741-.714-11.483-6.166-14.793-15.643-16.653-25.146ZM658.812 245.6c1.554 8 2.342 16.866 1.986 27.108-.331 11.133-2.547 20.916-6.086 29.68.891 12.179-.177 32.967-14.132 46.7 9.447-12.025 11.51-31.515 10.669-39.133-10.949 21.069-42.064 50.215-57.139 69.782 15.049-25.172 51.97-54.598 59.889-88.533-5.093 5.273-11.178 5.835-22.789 5.096 12.731-1.555 19.886-4.663 24.342-13.121.662-4.382 1.096-9.07 1.273-14.063.434-13.427-4.022-29.427-13.291-46.955.077 11.006-8.632 28.279-28.06 31.133 17.417-7.643 27.703-24.84 22.127-41.476a231.398 231.398 0 0 0-12.324-17.911c-2.292-2.93-4.532-5.783-6.747-8.407 2.342 8.483-7.919 17.247-14.795 18.725 3.744-3.643 11.714-15.465-6.722-35.209 5.169 2.446 10.873 5.885 15.176 9.248-33.535-36.228-61.06-37.247-73.766-55.488 18.358 12.535 66.917 19.311 88.713 13.374-12.019 8.051-41.046 7.312-48.151 5.809 23.656 23.006 75.346 46.777 84.258 67.923-12.579-13.784-20.753-16.331-31.575-19.898 8.581 12.814 16.271 24.076 21.593 37.145 13.775 29.884 32.16 30.242 33.356 54.878-6.263-19.032-18.97-23.872-27.805-36.407Z"/><path fill="#fff" d="M497.552 202.617c-5.527 7.592-15.584 12.687-27.017 12.687-2.674 0-5.246-.305-7.69-.764.688 3.134 2.292 6.37 5.627 9.146-1.349 9.095 2.572 17.605 12.325 19.822 1.043 4.637 3.896 8.127 8.734 9.782l-6.8 7.848c-2.622 3.006-6.034 3.974-8.784 3.618l-30.351-3.44c1.323-3.363-2.191-7.261-11.816-5.605l11.917-33.375-7.258-15.464-13.774 11.77-1.019 35.005-5.933-2.878c-7.639-3.313-9.905 10.623-2.622 10.674l2.928.026c-.204 1.426.254 3.006 1.4 3.516-1.375.56-1.783 3.133-.076 4.051-1.732.84-1.986 3.49-.586 4.637-1.502 2.572-1.783 8.152 3.54 9.554 4.379 1.146 7.129-3.543 8.021-6.268l47.233 14.624c6.646 1.911 11.433.84 16.984-4.025l12.325-10.778c-1.554 7.058.966 13.401 6.34 15.516 0 0-.841 6.471-.51 9.147l16.525.025h26.023v-77.705c0-7.235 2.064-14.471 4.61-21.146h-60.296Zm-70.733 130.75.917 1.147c1.273 1.58 2.037 1.197 3.488.357l2.139-1.146c1.35-1.02 10.135 2.344 10.618-4.968.968 5.451-5.525 16.941-1.604 23.362l5.271 8.637-17.213.255c-1.884 0-2.877 1.146-3.386 2.165l-4.508 9.35c-1.172 2.471-1.095 5.019.382 6.726l3.056 3.439s2.496-2.114 3.309-4.891l-1.349-1.402c-1.12-1.07-1.12-2.089-.509-3.414l2.775-5.757c1.07-2.268 2.165-2.752 4.61-2.166l13.928 3.006c1.018.256 2.674.739 3.666-.968 1.706-3.032 4.711-3.235 7.767-2.751 7.638 1.146 25.285 2.981 31.574-4.382 7.384 9.809 21.822 9.809 20.88 14.954l-3.056 16.866h4.583l2.801-17.247c.305-2.013 1.554-4.764-.611-6.318-.891-.688-1.298-1.045-3.311-4.51-2.622-4.586-2.494-11.465-5.016-17.401 2.394-2.828 4.991-3.796 7.257-3.261 5.093 1.248 6.468 10.038 13.699 17.196-.814-3.184-1.17-6.674-2.877-9.706 0 0 5.016 3.898 6.315 8.458.815 2.854 1.655 4.943 4.227 6.268 1.706.611 3.743-.204 5.781-2.65 0 0-4.763-6.776-8.251-11.209-4.787-6.09-11.179-12.204-19.886-11.491-2.751.23-5.399 1.478-7.919 2.981-9.906-5.554-17.595.331-20.651.331l-18.537-1.096c-3.641-.228-6.519-4.458-6.519-4.458-.458-15.693-13.062-21.936-17.416-21.936 0 0 .408-2.828-.739-3.821l-3.87 4.866-10.746-3.924 8.429 6.905-9.142 10.624c-.941 1.045-.814 2.42-.356 2.98Z"/><path fill="#fff" d="M414.675 355.403c-2.597 2.012-2.47 4.815-.916 7.949l1.553 2.904 4.048-3.083-.916-1.987c-.662-1.401-.636-2.828.509-3.72l5.806-4.382c1.63-1.197 2.139-1.324 3.871-1.07l12.246 2.574s-1.858-2.701-2.469-5.453l-11.535-1.529c-1.63-.203-2.622.485-4.048 1.58l-8.149 6.217Zm78.32 36.382h4.635l7.434-18.318c.255-.637.611-.917.892-1.452-3.336-1.325-5.297-2.242-8.072-3.847 1.859 2.497 3.31 3.567 2.546 5.885l-7.435 17.732Zm3.945-247.763 8.581-49.348-32.516 11.057v50.877l23.935-12.586Zm-18.436-33.298 21.567-7.948s-4.201 3.413-9.217 6.852c-4.456 3.083-12.35 6.37-12.35 6.37v-5.274Zm0 11.949 19.734-7.058s-2.368 2.498-7.359 5.937c-4.456 3.057-12.349 6.343-12.349 6.343v-5.222h-.026Zm0 12.687 17.366-6.675s0 2.115-5.016 5.529c-4.456 3.083-12.35 6.369-12.35 6.369v-5.223Z"/><path fill="#fff" d="m439.09 187.663.713 1.147h6.697l.076 1.172c.077 1.122.332 2.268.713 3.439 1.045 3.185 3.107 6.523 6.417 9.223 3.845 3.109 9.396 5.351 16.78 5.351 16.017 0 23.248-10.369 23.936-18.013l.051-1.172h6.721l.713-1.147c6.316-9.884 14.031-20.865 22.993-22.444l-24.444-14.192-29.97 16.306-29.996-16.306-24.419 14.192c8.964 1.554 16.679 12.56 23.019 22.444Z"/><path fill="#fff" d="M467.968 156.608v-50.877l-32.465-11.057 8.529 49.348 23.936 12.586Zm-5.475-15.974s-7.894-3.311-12.349-6.369c-5.016-3.414-5.016-5.554-5.016-5.554l17.39 6.675v5.248h-.025Zm0-29.91v5.274s-7.894-3.287-12.349-6.37c-5.042-3.439-9.269-6.852-9.269-6.852l21.618 7.948Zm0 11.949v5.248s-7.894-3.286-12.349-6.344c-5.042-3.439-7.384-5.936-7.384-5.936l19.733 7.032Zm8.015-49.758c-18.563 0-32.491 6.09-35.522 13.223l35.522 14.038 35.47-14.038c-3.005-7.134-16.908-13.223-35.47-13.223Zm.004-20.383c13.674 0 27.373 4.153 36.59 9.529 1.503-4.968 3.107-8.51 5.297-12.56l-8.402 1.3-6.8-14.523-12.705 6.752-13.98-13.834-14.005 13.834-12.68-6.752-6.849 14.522-8.404-1.299c2.19 4.05 3.769 7.592 5.323 12.56 9.243-5.376 22.891-9.53 36.615-9.53Zm231.711 111.844c4.583-.585 8.276-2.114 12.783-5.478-9.702-2.572-30.022-9.935-47.362-6.623-5.729.764-8.911 3.082-6.875 4.407 9.32 6.191 20.829 20.534 29.206 37.274 7.359-9.147 4.278-21.147 2.724-24.586 14.667 8.84 18.513 13.146 25.311 11.464-3.642-5.579-8.76-10.598-15.787-16.458Zm-451.178 29.556c8.377-16.738 19.886-31.081 29.231-37.273 2.088-1.324-1.146-3.643-6.824-4.407-17.366-3.286-37.736 4.051-47.437 6.624 4.557 3.364 8.173 4.892 12.808 5.478-7.053 5.885-12.172 10.879-15.813 16.458 6.849 1.681 10.669-2.624 25.31-11.465-1.502 3.465-4.609 15.439 2.725 24.585Z"/><path fill="#000" fill-rule="evenodd" d="M352.717 349.29c6.748-5.351 12.349-8.027 12.07-20.994-10.135 5.197-38.882 4.917-50.901-11.643-3.387-4.713.229-7.082 3.513-3.363 8.225 9.325 23.452 5.096 29.003 2.42-.891-3.209-3.361-7.388-5.423-9.171 2.088-2.038 7.97-5.096 9.166-10.344-3.132-1.707-15.329-2.93-15.329-2.93 1.962-1.885 4.405-4.509 2.929-11.515-12.452 3.822-27.857-1.376-31.345-5.987-3.438-4.536.077-8.79 2.979-5.784 6.213 6.522 36.819 13.987 48.202 2.65-4.227-1.172-8.887-4.943-9.728-7.287 10.543-1.069 18.945-7.286 19.633-15.031-5.832 0-16.832-.433-20.601-3.236 5.042-1.859 8.251-3.694 9.855-9.35-19.275-1.171-20.803-15.49-20.905-17.859 12.553 7.235 34.655 4.025 28.926-13.809-10.44-.56-20.956-17.451 7.741-32.967 26.1-14.139 55.764-29.375 53.141-54.469-1.706-16.051-28.111-27.006-31.472-35.133-11.026 5.248-13.241 11.337-8.276 21.553 0 0-24.572 2.446-26.507-12.687-.84-6.777 3.692-13.121 8.556-17.987-2.75 0-21.262-4.968-26.839 10.114-10.363-7.082-19.249-6.827-26.226.662 11.152 6.624 18.053 29.35 36.488 36.05-13.114 7.108-34.324 4.128-46.699-17.732-11.713 17.656-18.46 35.133 6.672 53.808-45.707 20.814-45.375 60.61-85.149 79.564 4.023 10.828 12.528 10.828 23.376 9.147-17.189 22.343-2.547 45.731-29.767 55.285 2.546 9.121 7.664 16.407 17.697 13.732-2.852 4.458-4.736 4.356-9.167 9.248 14.87 9.376 32.517 2.599 36.514-27.49.713-5.375 8.097-2.012 5.551 3.262-16.959 35.082 25.922 61.476 10.746 87.208 13.367-.562 23.578-1.606 29.129-6.115 2.725 5.401 4.38 10.751 3.769 16.025 7.384-1.503 10.083-5.86 10.592-10.904 4.839 14.14 22.153 29.247 49.857 29.247-14.692-20.992-1.018-42.266-21.771-66.188Zm-27.348 25.858-5.906 10.063c-2.115-6.624-5.959-13.502-8.429-18.393-4.761 9.808-12.273 10.012-19.505 10.063 1.604-23.49-27.907-47.107-14.921-73.909 2.597-5.35.891-11.923-4.686-14.751-19.784-10.038-10.618 31.642-30.376 32.916 3.768-4.765 5.193-14.649 5.754-15.516-4.202 1.096-14.26 7.516-18.791-.687 11.56-6.293 14.87-15.77 16.678-25.273 2.291-12.026 3.361-17.605 5.678-22.548 2.444-5.273 6.34-9.859 14.692-20.687-1.986.28-24.215 4.994-29.231 2.65 38.475-23.643 29.817-53.681 88.458-80.457-15.38-11.439-31.091-20.56-19.835-42.393 16.066 19.311 46.597 12.636 63.097 3.668-16.296-3.261-37.304-17.63-42.269-33.63 6.136-.942 14.106 5.733 18.665 8.84 2.215-5.91 3.081-12.763 10.236-14.24-9.549 20.406 9.294 31.056 27.271 31.133 2.8 0 14.412-1.173 14.412-1.173-1.86-3.821-9.371-14.267-3.922-18.47 4.405 4.127 9.651 7.413 14.412 11.082 34.961 27.056-16.602 52.126-37.685 63.515-33.077 17.884-24.215 39.183-10.414 44.61-.051 2.394-1.528 3.464-3.82 4.229-9.675 3.21-18.741-3.695-26.456-8.128.458 13.351-.458 26.191 14.31 33.528l-10.16 3.694c8.734 6.65 11.408 10.165 21.924 11.541-4.914 2.395-11 2.344-16.22 2.829 1.325 3.693 2.394 8.713 5.144 12.024-21.516 2.549-30.148-9.732-36.82-9.247-14.208 1.069-13.317 27.821 21.644 27.872l-3.616 5.986s6.62 3.873 12.707 4.611c-2.318 1.886-4.559 4.434-6.519 6.369l5.576 4.816c-14.284 2.547-18.308-12.637-27.577-5.325-14.131 11.21 17.01 34.828 46.852 31.311-2.494 3.211-9.523 7.95-12.527 10.395 24.317 22.981 12.324 44.636 22.331 60.509-20.981-1.377-36.514-16.791-40.156-33.427Z" clip-rule="evenodd"/><path fill="#000" fill-rule="evenodd" d="M287 291.229c5.067 5.273 11.178 5.834 22.763 5.095-12.756-1.554-19.911-4.663-24.367-13.12a130.22 130.22 0 0 1-1.248-14.064c-.407-13.427 4.023-29.426 13.292-46.954-.051 10.98 8.632 28.253 28.06 31.132-17.467-7.642-27.729-24.84-22.128-41.476a255.292 255.292 0 0 1 12.325-17.91c2.291-2.93 4.532-5.784 6.722-8.408-2.343 8.484 7.919 17.248 14.794 18.725-3.718-3.643-11.713-15.438 6.748-35.182-5.144 2.445-10.848 5.884-15.176 9.247 33.51-36.228 61.085-37.247 73.741-55.488-18.334 12.535-66.891 19.311-88.713 13.374 12.043 8.051 41.046 7.312 48.15 5.809-23.629 23.006-75.269 46.777-84.231 67.923 12.578-13.809 20.726-16.331 31.624-19.873-8.58 12.815-16.295 24.076-21.618 37.146-13.75 29.858-32.134 30.241-33.331 54.852 6.265-19.083 18.996-23.923 27.806-36.458-1.553 8-2.292 16.866-2.012 27.108.306 11.133 2.547 20.916 6.086 29.68-.891 12.179.178 32.967 14.132 46.7-9.472-12-11.51-31.515-10.669-39.133 10.924 21.069 42.065 50.215 57.114 69.782-15.049-25.146-51.945-54.547-59.864-88.507Zm344.692-101.172c10.822 3.567 18.996 6.09 31.574 19.898-8.911-21.146-60.627-44.916-84.257-67.921 7.104 1.477 36.132 2.242 48.151-5.809-21.796 5.936-70.354-.841-88.714-13.376 12.682 18.242 40.233 19.261 73.767 55.489-4.303-3.363-10.007-6.802-15.176-9.248 18.436 19.745 10.466 31.566 6.723 35.209 6.874-1.477 17.136-10.241 14.793-18.726 2.216 2.625 4.456 5.478 6.748 8.408a252.748 252.748 0 0 1 12.324 17.91c5.602 16.663-4.685 33.859-22.102 41.477 19.429-2.853 28.137-20.153 28.036-31.133 9.293 17.528 13.724 33.528 13.316 46.954-.178 4.993-.611 9.656-1.273 14.064-4.481 8.457-11.636 11.566-24.368 13.12 11.612.713 17.697.179 22.789-5.095-7.919 33.961-44.815 63.361-59.889 88.532 15.074-19.566 46.165-48.711 57.14-69.782.84 7.618-1.197 27.133-10.669 39.134 13.953-13.732 15.023-34.522 14.131-46.7 3.514-8.764 5.729-18.547 6.086-29.681.331-10.242-.459-19.133-1.986-27.107 8.835 12.534 21.541 17.376 27.831 36.458-1.197-24.637-19.581-25.019-33.357-54.878-5.347-13.147-13.037-24.407-21.618-37.197Z" clip-rule="evenodd"/><path fill="#000" fill-rule="evenodd" d="M691.48 245.927c10.822 1.708 19.328 1.708 23.376-9.12-39.774-18.955-39.442-58.725-85.149-79.564 25.132-18.65 18.36-36.153 6.672-53.808-12.35 21.859-33.636 24.84-46.699 17.732 18.384-6.701 25.336-29.426 36.488-36.05-6.977-7.49-15.889-7.745-26.252-.663-5.602-15.082-24.088-10.114-26.864-10.114 4.838 4.84 9.422 11.184 8.556 17.987-1.909 15.134-26.481 12.687-26.481 12.687 4.965-10.216 2.749-16.305-8.276-21.554-3.361 8.128-29.74 19.083-31.472 35.133-2.648 25.095 27.066 40.33 53.141 54.471 28.696 15.515 18.181 32.432 7.766 32.967-5.78 17.834 16.322 21.044 28.9 13.808-.051 2.37-1.654 16.687-20.93 17.86 1.63 5.656 4.813 7.489 9.855 9.35-3.769 2.828-14.769 3.235-20.575 3.235.687 7.745 9.116 13.987 19.658 15.032-.841 2.344-5.525 6.115-9.728 7.286 11.383 11.337 41.989 3.873 48.203-2.649 2.851-3.006 6.34 1.248 2.927 5.783-3.514 4.636-18.893 9.834-31.37 5.986-1.426 6.982.968 9.631 2.928 11.517 0 0-12.196 1.222-15.354 2.93 1.197 5.248 7.104 8.279 9.167 10.343-2.089 1.783-4.558 5.961-5.449 9.172 5.601 2.7 20.828 6.904 29.002-2.421 3.31-3.694 6.926-1.35 3.539 3.364-12.018 16.559-40.765 16.814-50.925 11.642-.281 12.968 5.321 15.644 12.069 20.993-20.778 23.924-7.053 45.197-21.746 66.139 27.679 0 44.994-15.108 49.832-29.248.56 5.019 3.207 9.401 10.566 10.904-.559-5.274 1.07-10.624 3.769-16.025 5.602 4.51 15.813 5.554 29.18 6.114-15.15-25.731 27.73-52.125 10.721-87.207-2.521-5.274 4.863-8.637 5.576-3.261 3.972 30.088 21.644 36.865 36.539 27.49-4.481-4.892-6.34-4.79-9.192-9.249 10.033 2.675 15.126-4.611 17.697-13.732-27.092-9.528-12.451-32.916-29.665-55.26Zm2.292 59.719c.536.866 1.936 10.751 5.729 15.516-19.784-1.275-10.618-42.955-30.402-32.917-5.577 2.803-7.231 9.376-4.66 14.751 12.935 26.802-16.551 50.42-14.895 73.909-7.283-.05-14.846-.255-19.556-10.064-2.42 4.893-6.315 11.771-8.428 18.395l-5.908-10.063c-3.667 16.661-19.2 32.05-40.13 33.451 9.957-15.847-2.012-37.503 22.331-60.508-3.055-2.446-10.058-7.184-12.578-10.395 29.867 3.516 60.983-20.1 46.852-31.311-9.243-7.312-13.318 7.873-27.552 5.324l5.577-4.814c-1.961-1.936-4.227-4.459-6.545-6.369 6.087-.739 12.707-4.612 12.707-4.612l-3.616-5.987c34.961-.051 35.801-26.802 21.669-27.872-6.646-.484-15.303 11.821-36.819 9.249 2.724-3.313 3.845-8.332 5.169-12.026-5.195-.484-11.332-.433-16.22-2.828 10.516-1.35 13.164-4.891 21.898-11.515l-10.134-3.72c14.742-7.363 13.801-20.178 14.259-33.527-7.69 4.433-16.806 11.311-26.405 8.127-2.292-.765-3.794-1.835-3.845-4.23 13.826-5.452 22.637-26.725-10.414-44.61-21.058-11.388-72.647-36.458-37.711-63.489 4.787-3.668 9.981-6.98 14.361-11.082 5.474 4.203-2.011 14.649-3.871 18.471 0 0 11.612 1.171 14.361 1.171 18.003-.076 36.871-10.725 27.322-31.158 7.156 1.478 7.996 8.382 10.185 14.267 4.584-3.108 12.529-9.757 18.716-8.815-5.016 15.975-25.973 30.369-42.294 33.629 16.474 8.969 47.03 15.644 63.097-3.668 11.255 21.834-4.43 30.955-19.835 42.394 58.667 26.751 49.984 56.814 88.483 80.457-4.965 2.343-27.27-2.37-29.256-2.651 8.402 10.828 12.324 15.414 14.717 20.688 2.343 4.942 3.362 10.497 5.679 22.547 1.833 9.503 5.168 18.98 16.677 25.274-4.506 8.127-14.538 1.706-18.715.611Zm-279.358 65.759 8.378-7.108-1.274-2.548c-.916-1.834-.432-1.936.536-2.649l4.431-3.287c1.017-.841 2.087-.739 3.335-.433l13.265 3.108h-14.004c-3.234.203-4.175 1.452-5.347 3.847l-.967 1.962-3.59 7.388c-1.223 2.548-1.86 5.936 1.349 9.757l2.546 3.032-5.144 10.421h4.329l3.565-7.236c.28-.255 5.551-5.07 6.671-10.038-1.528-1.248-2.597-2.115-1.756-3.847l1.603-3.465c.536-1.146.713-1.604 2.241-1.325l13.903 3.007c1.732.483 4.278 1.248 6.136-1.555 1.911-2.904 2.165-2.598 6.595-2.165l7.104.764c9.702.918 19.403-1.503 23.172-4.509 1.324 3.006 3.947 5.325 5.169 7.669.458.866-.306 2.089-.891 3.617l-7.97 19.057h12.298l6.952-17.375c.637-1.656 1.578-2.981 2.291-3.643l-3.997 21.044h11.942l3.157-20.815c.688-4.637.281-6.114-1.934-8.026-4.966-4.203-4.865-13.018-6.468-18.369a4.655 4.655 0 0 1 3.005-.585c2.597.229 4.557 6.879 7.613 11.159 6.11 8.585 14.437 18.063 23.986 4.712a28.205 28.205 0 0 0-3.081-4.229l-2.673-3.133c-1.554-1.732-8.938-10.191-12.02-13.222-7.002-7.058-17.747-5.987-22.025-2.548-9.702-5.096-19.937.255-22.356.051l-16.704-1.02c-.764-.051-1.909-.305-2.724-1.604l3.106-1.019c-2.902-12.102-10.21-22.217-22.967-23.974 0 0-.739-3.822-2.7-4.561l-3.819 4.484c-1.07.153-2.241.484-3.209.892l-16.295-6.064 12.222 12.357s-6.341 8.993-8.149 10.827c-1.196 1.682-1.094 2.981.255 4.586l2.368 3.109c1.223 1.605 2.572 1.554 4.532.56l2.674-1.401c1.172-.969 5.092.943 6.773-.586-1.07 3.516-1.604 6.904-1.858 9.58l-10.975-1.326c-2.394-.331-3.488 0-4.94 1.147l-9.37 7.21c-3.056 2.344-3.998 6.394-2.113 10.344l3.818 7.974Zm90.648 2.063-7.434 18.344h-4.635l7.436-17.758c.764-2.293-.688-3.363-2.547-5.86 2.751 1.555 4.737 2.574 8.072 3.848-.28.509-.637.789-.892 1.426Zm-71.703-39.719-2.113 1.122c-1.477.841-2.216 1.222-3.489-.357l-.916-1.172c-.458-.56-.611-1.91.331-2.981l9.115-10.623-8.402-6.905 10.694 3.949 3.921-4.892c1.146.969.738 3.796.738 3.796 4.329 0 16.934 6.268 17.417 21.962 0 0 2.852 4.203 6.493 4.433l18.563 1.12c3.081 0 10.771-5.858 20.651-.33 2.495-1.504 5.168-2.701 7.919-3.007 8.707-.637 15.125 5.427 19.886 11.541 3.488 4.433 8.276 11.21 8.276 11.21-2.063 2.446-4.075 3.261-5.78 2.649-2.572-1.324-3.413-3.388-4.228-6.266-1.298-4.561-6.314-8.459-6.314-8.459 1.706 3.057 2.062 6.523 2.877 9.707-7.257-7.185-8.632-15.949-13.699-17.171-2.241-.562-4.863.407-7.283 3.209 2.547 5.936 2.42 12.816 5.042 17.426 1.987 3.44 2.419 3.745 3.311 4.51 2.139 1.529.941 4.305.611 6.319l-2.75 17.247h-4.635l3.056-16.866c.942-5.146-13.495-5.146-20.88-14.954-6.289 7.362-23.935 5.528-31.574 4.382-3.081-.459-6.086-.255-7.767 2.777-.992 1.706-2.647 1.197-3.665.943l-13.929-3.007c-2.445-.561-3.514-.076-4.584 2.166l-2.775 5.758c-.611 1.35-.585 2.344.534 3.439l1.325 1.401c-.789 2.751-3.31 4.866-3.31 4.866l-3.031-3.414c-1.477-1.733-1.552-4.229-.381-6.675l4.507-9.427c.534-1.043 1.502-2.165 3.386-2.165l17.213-.255-5.271-8.586c-3.921-6.445 2.598-17.935 1.604-23.362-.534 7.261-9.319 3.949-10.694 4.942Zm-18.69 21.656 8.149-6.217c1.451-1.095 2.418-1.808 4.074-1.605l11.509 1.529c.636 2.752 2.47 5.452 2.47 5.452l-12.248-2.573c-1.731-.203-2.24-.127-3.87 1.045l-5.806 4.382c-1.145.892-1.196 2.318-.534 3.72l.941 2.012-4.048 3.057-1.554-2.904c-1.579-3.083-1.679-5.911.917-7.898Zm35.499-221.165c4.456 3.083 12.35 6.369 12.35 6.369v-5.249l-17.392-6.649s0 2.141 5.042 5.529Zm12.321-6.321v-5.247l-19.733-7.058s2.343 2.497 7.385 5.936c4.455 3.058 12.348 6.369 12.348 6.369Zm.005-11.922v-5.273l-21.619-7.949s4.227 3.414 9.269 6.853c4.456 3.083 12.35 6.369 12.35 6.369Z" clip-rule="evenodd"/><path fill="#000" fill-rule="evenodd" d="M523.218 187.663h22.102c-.917-3.211-4.355-6.446-10.797-6.446-6.11 0-9.777 3.516-11.305 6.446Zm-23.113-84.888-21.567 7.949v5.273s7.893-3.286 12.35-6.369a158.987 158.987 0 0 0 9.217-6.853Zm-4.201 25.936-17.366 6.675v5.248s7.893-3.311 12.35-6.369c5.016-3.413 5.016-5.554 5.016-5.554Zm2.333-13.097-19.733 7.058v5.247s7.918-3.286 12.349-6.343c5.042-3.465 7.384-5.962 7.384-5.962Zm-91.789 65.603c-6.442 0-9.879 3.235-10.796 6.446h22.128c-1.579-2.93-5.195-6.446-11.332-6.446Z" clip-rule="evenodd"/><path fill="#000" fill-rule="evenodd" d="M514.411 88.608c0-12.432-20.88-23.566-43.924-23.566s-43.923 11.134-43.923 23.566l.483 3.058 9.166 52.814-43.541 25.4c-4.634 2.727-10.44 10.216-11.178 17.758h7.944c1.324-7.542 7.257-15.898 18.385-15.388 10.058.534 16.015 6.649 21.923 15.388l1.528 2.293 2.19 3.439h-64.04c4.711 9.452 9.167 19.49 9.167 30.369v133.219c0 34.267 26.304 50.598 54.796 50.598 22.001 0 24.979-.994 37.126 11.158 12.094-12.152 15.074-11.158 37.124-11.158 28.468 0 54.797-16.331 54.797-50.598V223.765c0-10.879 4.456-20.918 9.166-30.37h-64.09l2.215-3.439 1.528-2.293c5.882-8.738 11.866-14.853 21.924-15.388 11.076-.509 17.06 7.847 18.358 15.388h7.919c-.712-7.541-6.544-15.056-11.152-17.757l-43.542-25.401 9.192-52.814.459-3.083Zm-78.936 6.064 32.491 11.057v50.877l-23.936-12.584-8.555-49.35Zm7.996 107.947c4.277 5.859 11.204 10.19 19.402 11.871.688 3.083 2.369 6.471 5.627 9.198-1.349 9.095 2.547 17.579 12.325 19.821 1.018 4.636 3.896 8.127 8.708 9.783l-6.798 7.847c-2.598 3.006-5.984 3.974-8.785 3.618l-30.352-3.44c1.324-3.363-2.19-7.261-11.79-5.605l11.943-33.374-7.283-15.465-13.801 11.771-1.019 35.005-5.855-2.879c-7.716-3.312-9.957 10.623-2.624 10.674l2.903.026c-.178 1.427.255 3.006 1.375 3.49-1.375.587-1.782 3.185-.051 4.103-1.756.815-1.986 3.464-.585 4.61-1.528 2.574-1.757 8.153 3.564 9.554 4.355 1.147 7.079-3.541 7.97-6.267l47.209 14.624c6.696 1.91 11.433.841 16.984-4.025l12.324-10.777c-1.553 7.057.993 13.401 6.366 15.515 0 0-.764 6.344-.535 9.173h-122.91v-77.705c0-7.236-2.088-14.472-4.583-21.146h60.271Zm50.773 29.476c-2.598 4.969-2.343 10.675.713 15.847l-2.037 1.987c-8.861-1.096-12.349-14.318-12.349-14.318-.179 1.198-.281 2.344-.255 3.516-5.17-1.911-8.428-6.496-8.174-12.79 1.961 1.096 4.151 1.861 6.493 2.268l.612-3.873c-6.188-1.07-9.804-4.942-11.179-9.528-.306-.026-.56-.102-.841-.127 1.096.076 2.19.178 3.311.178a36.49 36.49 0 0 0 10.414-1.529c2.572 3.669 7.13 6.293 11.713 6.803-.738 3.057-.382 6.853 1.579 11.566Zm13.114 34.954a13.378 13.378 0 0 0-2.064 4.077l-4.939 4.535c.993-7.235-3.87-15.771-8.301-19.261l5.246-5.146 1.043 1.07c-1.757 4.611 1.681 13.656 9.015 14.725Zm-23.859-2.266 4.074-4.001c4.124 3.618 9.574 11.694 7.868 19.389l-4.431 4.076c-.917.891-1.858 1.528-2.826 2.114 2.775-6.854-.764-17.4-4.685-21.578Zm-8.76 3.388h.128c1.477.229 3.055-.026 4.481-.612 3.106 4.433 5.526 14.522 1.808 20.815-2.113.051-4.176-.331-6.112-.891l-1.527-.46c3.132-4.865 2.699-13.476 1.222-18.852Zm-10.261-1.274 5.729.713c.917 4.764.306 12.993-2.725 17.682l-6.671-1.937c2.928-3.974 4.303-12.152 3.667-16.458Zm-11.942-1.452 6.951.815c.687 3.821-.611 11.948-3.234 15.821l-7.079-2.038c2.826-3.745 3.845-10.344 3.362-14.598Zm-28.137-1.861c-3.234 1.045-4.66-1.299-4.532-3.286 6.34-2.318 9.166-.815 11.025.357 1.706 1.07 3.132 4.128 5.423 6.038-.381 2.598-1.17 6.369-2.113 8.892-6.493-1.657-6.824-7.389-4.405-10.879-1.35-1.58-2.775-1.988-5.398-1.122Zm-4.532 12.663s1.934.815 4.379.994c-.28 1.35-1.324 2.624-2.979 2.266-1.375-.305-1.986-1.987-1.4-3.26Zm-6.392-18.599c-1.604-1.069-.891-3.413.892-3.413 1.96.051 4.557 2.267 7.129 3.362 0 0-6.748.918-8.021.051Zm6.596 13.504c1.4 1.35 5.601.84 5.601.84l.153.841c-1.834 2.445-6.926 1.35-5.754-1.681Zm5.652-2.777c-3.005 1.197-6.086-.434-5.144-2.37 1.401 1.274 5.297.637 5.297.637l-.153 1.733Zm4.431-34.98-5.755 20.967 1.961-33.833 8.911-7.617 4.533 9.961-11.459 32.865 3.031-22.114c.28-1.58-.968-1.758-1.222-.229Zm.407 25.426s6.416-.306 8.225.381c1.324.561.432 2.803-1.3 2.549-1.807-.23-6.925-2.93-6.925-2.93Zm10.058 5.095 6.976.867c.536 3.82-.458 10.292-2.954 13.91l-6.747-1.962c1.782-4.255 2.216-8.254 2.725-12.815Zm112.623 93.068c0 16.202-7.487 28.509-19.937 35.336l4.455-9.07h-4.329l-5.729 11.618c-5.932 2.242-12.655 3.49-20.09 3.49-22.713 0-28.722.917-37.125 9.299-8.429-8.382-14.437-9.299-37.125-9.299-7.385 0-14.106-1.197-20.014-3.439h.153l5.729-11.669h-4.303l-5.016 10.217a41.233 41.233 0 0 1-3.489-1.835l4.125-8.382h-4.278l-3.055 6.242c-9.728-7.159-15.457-18.369-15.457-32.508v-50.955h165.434v50.955h.051Zm4.608-154.365c-2.571 6.674-4.634 13.91-4.634 21.146v77.705h-9.04c-4.099-3.975-7.562-17.223-7.562-17.223-2.24 4.764.331 14.419 2.725 17.223h-11.637c-2.877-3.899-5.372-17.707-5.372-17.707-3.488 3.974-1.273 14.7.891 17.707h-7.741c-.484-5.529 1.095-11.542 1.095-11.542-4.049-.739-8.352-2.879-8.327-7.363 2.037 1.911 2.878 1.886 5.704 1.835l3.285-2.6c-10.898.358-11.407-11.617-2.75-17.222-8.632.28-15.074-4.865-11.942-14.038-6.136-3.185-8.301-13.578-3.769-18.139-3.284-3.567-3.819-10.573-1.731-15.337-4.354 0-9.243-1.733-11.968-4.714-.203.102-.458.179-.688.255 5.45-2.216 10.058-5.681 13.165-9.961h60.296v-.025Zm-32.949-37.401c-8.962 1.555-16.678 12.534-22.993 22.445l-.713 1.146h-6.748l-.024 1.173c-.689 7.642-7.945 18.012-23.936 18.012-7.384 0-12.96-2.268-16.78-5.35-3.31-2.701-5.399-6.038-6.417-9.223a15.337 15.337 0 0 1-.713-3.439l-.051-1.173h-6.697l-.713-1.146c-6.34-9.885-14.055-20.866-22.993-22.445l24.419-14.191 29.996 16.306 29.944-16.306 24.419 14.191Zm-27.958-21.196-23.91 12.584v-50.877l32.491-11.057-8.581 49.35Zm-26.43-43.847-35.521-14.037c3.004-7.135 16.932-13.223 35.521-13.223 18.562 0 32.465 6.088 35.469 13.223l-35.469 14.037Z" clip-rule="evenodd"/><path fill="#000" fill-rule="evenodd" d="m549.447 252.833.076-3.899c-11.942-.28-14.691-14.369-14.691-14.369-3.49 10.369 5.627 18.114 14.615 18.268Zm-15.076 23.871-1.196-3.693c-10.185 2.598-15.455-13.554-15.455-13.554-3.26 11.745 8.096 20.051 16.651 17.247Zm7.081-14.98c-12.171 1.936-17.161-12.228-17.161-12.228-1.35 7.719 3.641 15.54 11.713 16.355-1.834 10.065 7.511 15.235 15.608 11.643l-1.171-3.515c-7.028 2.369-13.622-4.587-8.989-12.255Zm-7.284-40.431.102-3.898c-16.068-3.312-14.718-14.369-14.718-14.369-3.463 10.42 5.652 18.115 14.616 18.267ZM432.367 383.25l-5.754 11.669h4.328l5.73-11.669h-4.304Zm8.684 0-5.729 11.669h4.354l5.678-11.669h-4.303Zm34.783 0-5.73 11.669h4.304l5.754-11.669h-4.328Zm8.706 0-5.78 11.669h4.354l5.703-11.669h-4.277Zm-17.391 0-5.753 11.669h4.327l5.729-11.669h-4.303Zm50.798 11.669h4.328l5.73-11.669h-4.329l-5.729 11.669ZM449.76 383.25l-5.729 11.669h4.328l5.729-11.669h-4.328Zm8.656 0-5.729 11.669h4.354l5.729-11.669h-4.354Zm-19.657-62.723c-.789 0-1.477.764-1.477 1.758 0 .968.688 1.758 1.477 1.758.815 0 1.528-.79 1.528-1.758-.025-.994-.713-1.758-1.528-1.758ZM470.513 57.17c17.824 0 32.108 5.91 39.976 12.255 0 0 2.369-14.166 10.339-26.598l-14.362 1.605-7.512-16-14.437 7.516-14.004-13.91-14.005 13.91-14.489-7.516-7.511 16-14.362-1.605c7.996 12.432 10.338 26.598 10.338 26.598 7.894-6.344 22.204-12.254 40.029-12.254Zm-33.536-6.369 6.851-14.522 12.68 6.752 14.005-13.834 14.004 13.834 12.681-6.752 6.773 14.522 8.429-1.299c-2.165 4.05-3.795 7.592-5.297 12.56-9.217-5.376-22.917-9.528-36.59-9.528-13.725 0-27.398 4.152-36.617 9.528-1.527-4.968-3.131-8.51-5.321-12.56l8.402 1.3Z" clip-rule="evenodd"/><path fill="#000" fill-rule="evenodd" d="M485.178 28.56c2.087.178 3.946-1.402 4.124-3.466.204-2.089-2.852-7.642-2.852-7.642s-4.558 4.917-4.711 7.006c-.203 2.038 1.375 3.898 3.439 4.102Zm23.525 8.536c1.86.992 4.126.254 5.119-1.606 1.018-1.835.356-8.127.356-8.127s-6.06 2.726-7.052 4.585c-.968 1.835-.255 4.128 1.577 5.148Zm-52.881-8.536c2.113-.204 3.666-2.039 3.488-4.102-.203-2.089-4.71-7.006-4.71-7.006s-3.031 5.579-2.852 7.642c.153 2.064 2.011 3.644 4.074 3.465Zm-23.505 8.536c1.859-1.02 2.547-3.313 1.579-5.147-.968-1.86-7.053-4.586-7.053-4.586s-.636 6.292.382 8.127a3.733 3.733 0 0 0 5.092 1.605Zm282.259 129.422c5.016-1.784 8.886-6.573 10.821-11.006-12.756-1.834-46.649-16.076-74.505-4.484 10.441-9.91 19.811-11.184 20.701-25.451 4.329 3.108 11.637 4.866 15.763-2.547-2.877-8.485-10.135-1.606-11.153-3.95-1.426-3.261 9.14.994 11.407-10.037-8.224-2.829-10.669 3.897-12.146 2.343-1.349-1.478 5.22-4.306.383-13.197-8.557 5.019-4.101 10.65-5.908 11.286-2.19.867-.459-6.038-9.931-5.706-.942 10.165 8.887 10.496 7.282 12.101-1.96 1.962-4.506-5.834-11.661-1.885.126 8.204 6.772 12.712 13.623 10.776-1.121 15.593-15.431 12.688-26.075 30.267 22.561 11.567 32.771 31.744 46.648 45.706 4.584-3.261 12.426-17.732 12.426-17.732 15.023 11.643 25.59.05 25.59.05-5.168-5.298-5.372-9.324-13.265-16.534Zm-21.899 2.828c1.553 3.44 4.635 15.439-2.724 24.586-8.377-16.739-19.887-31.082-29.207-37.273-2.037-1.325 1.121-3.643 6.876-4.407 17.34-3.287 37.685 4.05 47.361 6.624-4.508 3.362-8.173 4.891-12.783 5.451 7.028 5.911 12.172 10.904 15.787 16.459-6.798 1.706-10.643-2.599-25.31-11.44ZM547.819 429.568v-19.057c-14.718 6.751-33.434 12.228-57.521 14.395l-1.095 6.802c2.036.28 4.634.535 8.097.764-8.912 1.224-20.447 1.809-26.762 1.809-6.34 0-17.849-.585-26.787-1.809 3.437-.229 6.035-.484 8.072-.764l-1.094-6.802c-24.089-2.167-42.83-7.644-57.522-14.395v19.057l-19.963 8.203c14.795 7.694 31.804 13.962 51.461 19.032l-2.343 7.974c11.255 3.313 29.257 6.675 48.125 6.675 18.869 0 36.845-3.388 48.125-6.675l-2.316-7.974c19.631-5.07 36.692-11.338 51.485-19.032l-19.962-8.203Zm-163.906 8.636 13.471-5.426v-15.516c8.657 3.337 20.013 6.803 36.309 10.191l-7.638 24.891c-16.628-3.822-30.759-8.968-42.142-14.14Zm86.6 28.687c-15.202 0-30.046-2.267-42.727-5.4l8.072-26.115c5.347 1.249 18.74 2.879 34.655 2.879 15.94 0 29.256-1.655 34.629-2.879l8.098 26.115c-12.732 3.133-27.551 5.4-42.727 5.4Zm44.483-14.547-7.638-24.891c16.296-3.362 27.653-6.854 36.311-10.191v15.516l13.444 5.426c-11.382 5.172-25.464 10.318-42.117 14.14ZM238.77 183.002s7.842 14.471 12.401 17.732c13.903-13.936 24.138-34.114 46.673-45.706-10.669-17.579-24.979-14.623-26.049-30.267 6.85 1.936 13.471-2.598 13.623-10.776-7.181-3.949-9.726 3.898-11.661 1.885-1.605-1.655 8.198-1.936 7.282-12.101-9.472-.306-7.741 6.573-9.957 5.706-1.782-.636 2.675-6.292-5.906-11.285-4.813 8.916 1.782 11.718.407 13.196-1.452 1.554-3.948-5.147-12.146-2.343 2.215 11.031 12.833 6.776 11.407 10.037-1.019 2.344-8.25-4.535-11.102 3.95 4.075 7.438 11.408 5.681 15.711 2.572.916 14.292 10.261 15.49 20.727 25.426-27.882-11.592-61.773 2.65-74.582 4.51 1.962 4.407 5.832 9.197 10.848 10.929-7.894 7.287-8.097 11.312-13.266 16.585 0 0 10.541 11.593 25.59-.05Zm-15.787-2.191c3.641-5.554 8.759-10.573 15.838-16.458-4.634-.586-8.275-2.115-12.808-5.477 9.701-2.574 30.072-9.937 47.438-6.624 5.703.764 8.912 3.082 6.824 4.407-9.319 6.191-20.854 20.534-29.232 37.273-7.333-9.147-4.227-21.121-2.724-24.56-14.642 8.815-18.46 13.12-25.336 11.439Zm235.33-8.434v8.383c2.877-3.491 8.48-2.803 8.48-2.803v12.102s-.204 5.961-2.292 8.509h12.069c-2.113-2.548-2.292-8.509-2.292-8.509v-12.077s5.577-.688 8.455 2.802v-8.381h-24.42v-.026Z" clip-rule="evenodd"/><path fill="#000" d="M64.553 676.192v-63.284h37.354v-23.029H0v23.029h37.353v63.284h27.2Zm74.531-36.084v-50.229h-26.292v86.313h23.21l45.332-50.228v50.228h26.293v-86.313h-23.21l-45.333 50.229Zm156.998 3.989v32.095h26.292v-86.313h-26.292v31.551h-42.251v-31.551h-26.292v86.313h26.292v-32.095h42.251Zm99.515 32.095c5.984 0 11.424-.544 16.501-1.995 13.6-3.808 22.485-14.869 22.485-29.919 0-14.325-7.616-24.298-19.765-28.832-5.802-2.175-12.692-2.357-19.221-2.357H368.58v-23.21h-26.293v86.313h53.31Zm-4.533-42.793c3.627 0 7.071 0 10.154 1.087 4.352 1.451 6.891 5.077 6.891 9.429 0 4.534-2.539 8.341-6.709 10.155-2.902 1.269-5.803 1.269-10.336 1.269H368.58v-21.94h22.484Zm90.661 10.153 31.371 32.64h34.996l-43.7-44.97 42.068-41.343h-33.002l-31.733 32.459h-7.253v-32.459h-26.293v86.313h26.293v-32.64h7.253Zm120.468-56.03c-35.358 0-56.574 19.946-56.574 45.695 0 25.748 21.216 45.695 56.574 45.695 35.178 0 56.394-19.947 56.394-45.695 0-25.749-21.216-45.695-56.394-45.695Zm0 70.356c-17.588 0-28.831-10.518-28.831-24.661 0-14.144 11.243-24.48 28.831-24.48 17.408 0 28.831 10.336 28.831 24.48 0 14.143-11.423 24.661-28.831 24.661Zm143.957-72.895h-26.292v8.704c-33.002.726-52.767 14.688-52.767 39.349 0 24.66 19.765 37.535 52.767 38.26V680h26.292v-8.704c33.183-.725 52.948-13.6 52.948-38.26 0-24.661-19.765-38.623-52.948-39.349v-8.704Zm-26.292 67.818c-18.133-.726-26.112-8.161-26.112-19.765 0-11.606 7.979-19.947 26.112-20.672v40.437Zm26.292-40.437c18.315.725 26.111 9.066 26.111 20.672 0 11.604-7.796 19.039-26.111 19.765v-40.437Zm140.424-27.381h-26.293v8.704c-33.002.726-52.766 14.688-52.766 39.349 0 24.66 19.764 37.535 52.766 38.26V680h26.293v-8.704c33.179-.725 52.948-13.6 52.948-38.26 0-24.661-19.769-38.623-52.948-39.349v-8.704Zm-26.293 67.818c-18.133-.726-26.112-8.161-26.112-19.765 0-11.606 7.979-19.947 26.112-20.672v40.437Zm26.293-40.437c18.316.725 26.111 9.066 26.111 20.672 0 11.604-7.795 19.039-26.111 19.765v-40.437Z"/></svg>