<svg xmlns="http://www.w3.org/2000/svg" width="685" height="680" fill="none"><path fill="#fff" d="M607.917 176.201c-1.479-1.507-2.347-2.884-3.571-4.799a224 224 0 0 0-2.091-3.138 32.9 32.9 0 0 0 5.254-8.395l5.407-12.325-13.313-1.915c-2.244-.331-5.866-1.275-10.1-2.398-8.161-2.144-18.643-4.899-30.069-6.099 3.902-1.709 7.218-4.797 9.538-8.982l2.194-3.955s-.587-5.538-2.729-7.272c.817-1.711 1.454-3.599 1.888-5.666l1.81-8.829-8.519-2.909a23 23 0 0 0-3.953-.995c-.484-1.608-1.198-3.317-2.167-5.129l-5.05-9.263-9.105 5.333c-2.27 1.328-4.182 2.858-5.738 4.568a23.4 23.4 0 0 0-4.336-.383s-5.202-.587-10.941 1.505l-7.345-7.63-8.697-9.288c-8.136-8.702-19.153-11.278-30.374-6.991-4.285-4.287-10.968-7.835-21.347-7.835-3.52 0-6.607.434-8.417.664 0 0-14.282 2.603-22.316 10.233l-9.742-4.645c-6.529 10.284-17.7 13.55-17.7 13.55a24.6 24.6 0 0 0-3.927-8.395l.638-3.624c0-.102 2.192-12.376 8.875-22.788l11.629-18.117-16.475 1.863c.051-1.633-.025-3.572-.256-5.869l-1.479-14.086-12.905 5.843c-1.428.638-2.626 1.277-3.748 1.864l-2.551-5.436-5.916 3.062a48 48 0 0 0-2.398-5.027L361.066 0 351.4 10.437a39 39 0 0 0-2.551 3.01l-5.866-5.843-5.916 5.87a47 47 0 0 0-2.551-3.013L324.748 0l-6.835 12.554a47 47 0 0 0-2.372 5.002l-5.891-3.063-2.551 5.436c-1.122-.587-2.32-1.225-3.749-1.889l-12.955-5.817-1.429 14.136c-.23 2.272-.306 4.185-.255 5.819l-16.501-1.863 11.655 18.117c6.708 10.386 8.85 22.66 8.85 22.762l.612 3.624c-1.861 2.602-3.187 5.41-3.928 8.42 0 0-10.558-4.516-17.622-13.575l-9.947 4.747c-11.349-7.656-18.388-10.64-30.63-10.999-10.38-.28-17.062 3.548-21.347 7.835-11.247-4.262-22.239-1.685-30.349 7.017 0 0-5.33 5.792-8.697 9.289-3.367 3.52-8.34 6.43-8.34 6.43s-7.064-1.582-14.333.076c-1.555-1.71-3.494-3.24-5.789-4.593l-9.131-5.333-5.024 9.314c-.969 1.787-1.658 3.47-2.117 5.078-1.3.204-2.626.535-3.952.995l-8.468 2.96 1.76 8.778c.433 2.119 1.045 4.006 1.886 5.717a22.4 22.4 0 0 0-1.274 2.985l-1.428 4.261 2.167 3.955c2.296 4.16 5.586 7.273 9.513 8.983-11.451 1.2-21.907 3.955-30.094 6.099-4.208 1.097-7.83 2.066-10.074 2.398l-13.364 1.94 3.034 6.89 2.424 5.486a35 35 0 0 0 5.28 8.344c-.792 1.123-4.159 6.405-5.663 7.911l-6.758 6.864 6.478 7.145c.816.867 8.085 8.498 19.841 8.523q4.821 0 9.564-1.684c3.137 4.9 6.861 9.875 10.252 12.324-6.248 7.35-13.363 13.73-23.488 18.553l-8.467 4.031 3.646 9.671c2.373 5.844 6.989 12.249 15.915 14.699-1.913 5.716-2.831 11.125-3.647 15.948-1.912 11.458-2.729 16.204-12.803 19.751l-9.054 3.165 2.602 9.237c2.091 7.528 5.228 12.504 8.62 15.796l-6.019 6.634s14.282 10.718 28.283 12.019c.205.025 12.14.791 17.496-6.047 2.143 7.756 5.534 14.901 8.621 21.383 6.324 13.321 9.691 21.206 5.457 28.401l-9.564 16.23 18.797-.791c8.212-.332 15.838-.842 22.443-2.476 0 .358-.025.69-.051 1.022l-1.53 13.932 16.475-3.471a25.7 25.7 0 0 0 4.846-1.989c10.201 11.942 27.544 21.256 50.906 21.256h1.352l-26.856 11.023 19.561 10.182c12.88 6.711 27.188 12.325 43.51 17.097l-2.27 7.834 9.819 2.883c5.662 1.659 26.142 7.094 51.084 7.094s45.397-5.435 51.084-7.094l9.794-2.883-2.271-7.808c16.349-4.772 30.657-10.387 43.536-17.097l19.561-10.183-26.881-11.023h1.353c23.361 0 40.677-9.313 50.88-21.256a25.7 25.7 0 0 0 4.845 1.99l16.475 3.471-1.504-13.907a14 14 0 0 1-.051-1.047c6.58 1.633 14.231 2.118 22.418 2.475l18.796.791-9.514-16.204c-4.258-7.195-.867-15.08 5.434-28.4 3.085-6.482 6.477-13.628 8.62-21.384 3.621 2.755 7.523 4.414 11.4 5.282 0 0 3.01.892 5.891.969 8.314.255 12.472-2.117 18.184-5.716l10.38-6.533-6.07-6.634c3.393-3.266 6.529-8.242 8.621-15.745l2.627-9.262-9.079-3.165c-10.101-3.547-10.891-8.293-12.803-19.751-.816-4.823-1.71-10.258-3.648-15.948 8.927-2.475 13.517-8.881 15.889-14.699l3.622-9.696-8.468-4.032c-10.125-4.823-17.24-11.203-23.514-18.552 3.417-2.449 7.141-7.425 10.304-12.324a28.9 28.9 0 0 0 9.564 1.684c11.757 0 19.051-7.63 19.842-8.498l6.477-7.145z"/><path fill="#FFDD2D" fill-rule="evenodd" d="M259.991 301.953v-77.83c0-7.247-2.091-14.494-4.591-21.155h60.368c5.535 7.605 15.583 12.708 27.111 12.708 11.477 0 21.525-5.103 27.085-12.708h60.367c-2.551 6.686-4.616 13.908-4.616 21.155v77.83zm82.862 106.358c-8.442-8.395-14.461-9.314-37.21-9.314-27.187 0-45.652-15.949-45.652-41.441V306.52H425.69v51.036c0 25.492-18.44 41.441-45.678 41.441-22.724-.025-28.743.919-37.159 9.314" clip-rule="evenodd"/><path fill="#fff" d="M269.611 417.932v15.54l-13.491 5.436c11.4 5.18 25.555 10.334 42.183 14.136l7.651-24.931c-16.322-3.343-27.697-6.839-36.343-10.181m73.242 21.052c-15.941 0-29.356-1.658-34.711-2.883l-8.084 26.156c12.7 3.113 27.569 5.409 42.795 5.409 15.174 0 30.043-2.27 42.795-5.409l-8.11-26.156c-5.356 1.25-18.72 2.883-34.685 2.883m73.252-21.052c-8.671 3.342-20.021 6.813-36.343 10.207l7.676 24.931c16.655-3.802 30.758-8.957 42.158-14.137l-13.465-5.436v-15.565zM241.349 167.218c21.118-11.407 72.737-36.517 37.745-63.591-4.769-3.675-10.022-6.992-14.435-11.1-5.457 4.21 2.041 14.673 3.928 18.501 0 0-11.656 1.173-14.435 1.173-18.006-.076-36.879-10.743-27.315-31.182-7.167 1.479-8.034 8.37-10.226 14.264-4.591-3.114-12.574-9.8-18.72-8.855 4.998 16 26.039 30.417 42.361 33.684-16.501 8.982-47.105 15.667-63.198-3.675-11.298 21.869 4.437 31.004 19.868 42.462-58.736 26.819-50.064 56.904-88.6 80.585 4.998 2.348 27.288-2.373 29.278-2.654-8.366 10.845-12.268 15.439-14.716 20.72-2.347 4.951-3.392 10.54-5.713 22.584-1.811 9.518-5.127 19.011-16.705 25.314 4.54 8.216 14.614 1.786 18.822.689-.561.867-1.99 10.768-5.764 15.54 19.791-1.276 10.635-43.023 30.426-32.969 5.585 2.807 7.269 9.391 4.692 14.775-13.007 26.844 16.553 50.5 14.945 74.028 7.27-.051 14.794-.257 19.537-10.081 2.474 4.9 6.299 11.79 8.441 18.425l5.918-10.08c3.646 16.688 19.204 32.102 40.219 33.479-10.023-15.872 1.99-37.537-22.366-60.579 3.034-2.45 10.048-7.171 12.547-10.386-29.89 3.522-61.082-20.133-46.927-31.361 9.258-7.324 13.313 7.885 27.595 5.333l-5.585-4.823c1.963-1.939 4.208-4.465 6.528-6.379-6.069-.741-12.7-4.62-12.7-4.62l3.621-5.996c-35.016-.051-35.909-26.844-21.678-27.917 6.682-.484 15.328 11.841 36.879 9.264-2.755-3.317-3.851-8.344-5.153-12.044 5.204-.485 11.325-.434 16.247-2.833-10.533-1.352-13.186-4.9-21.959-11.535l10.176-3.724c-14.767-7.375-13.874-20.211-14.333-33.582 7.728 4.44 16.807 11.329 26.498 8.139 2.296-.765 3.775-1.837 3.826-4.236-13.823-5.537-22.698-26.844 10.431-44.757m-25.223 2.092c-18.49 19.776-10.483 31.617-6.759 35.266-6.886-1.481-17.163-10.259-14.818-18.756-2.192 2.628-4.437 5.487-6.732 8.421a262 262 0 0 0-12.344 17.938c-5.611 16.689 4.667 33.915 22.163 41.544-19.434-2.858-28.156-20.159-28.105-31.183-9.284 17.556-13.722 33.582-13.314 47.03.179 5.001.612 9.671 1.275 14.085 4.464 8.472 11.631 11.585 24.407 13.143-11.603.74-17.751.204-22.8-5.105 7.906 34.016 44.887 63.463 59.934 88.675-15.073-19.597-46.264-48.79-57.179-69.893-.842 7.63 1.198 27.176 10.685 39.195-13.976-13.754-15.072-34.576-14.154-46.774-3.544-8.778-5.789-18.577-6.095-29.728-.281-10.258.433-19.165 1.989-27.151-8.825 12.554-21.576 17.403-27.851 36.516 1.225-24.651 19.614-25.034 33.386-54.966 5.33-13.09 13.082-24.395 21.652-37.205-10.89 3.573-19.051 6.125-31.651 19.93 8.952-21.18 60.674-44.989 84.368-68.031-7.116 1.505-36.165 2.246-48.228-5.818 21.857 5.92 70.492-.842 88.855-13.397-12.675 18.246-40.27 19.292-73.859 55.578 4.284-3.419 9.998-6.864 15.175-9.314m352.389 110.823c-2.32-12.043-3.341-17.632-5.687-22.583-2.423-5.282-6.35-9.875-14.741-20.72 1.989.28 24.331 5.001 29.304 2.654-38.536-23.681-29.865-53.766-88.626-80.585 15.43-11.458 31.166-20.593 19.867-42.488-16.092 19.368-46.697 12.683-63.198 3.675 16.348-3.266 37.363-17.659 42.362-33.683-6.173-.945-14.155 5.741-18.745 8.829-2.194-5.896-3.036-12.785-10.202-14.29 9.564 20.464-9.334 31.131-27.365 31.208-2.755 0-14.384-1.175-14.384-1.175 1.861-3.826 9.36-14.289 3.875-18.5-4.411 4.134-9.614 7.426-14.409 11.101-35.016 27.074 16.654 52.209 37.772 63.59 33.078 17.914 24.279 39.221 10.431 44.682.051 2.399 1.53 3.47 3.851 4.236 9.64 3.215 18.771-3.675 26.447-8.141-.434 13.372.484 26.233-14.282 33.582l10.15 3.726c-8.773 6.635-11.4 10.182-21.933 11.534 4.897 2.398 11.069 2.347 16.246 2.833-1.326 3.699-2.473 8.727-5.177 12.043 21.576 2.552 30.248-9.747 36.878-9.262 14.18 1.072 13.339 27.865-21.704 27.916l3.622 5.997s-6.631 3.879-12.727 4.618c2.322 1.889 4.591 4.44 6.555 6.38l-5.585 4.823c14.257 2.552 18.337-12.657 27.594-5.333 14.155 11.227-17.01 34.883-46.926 31.361 2.525 3.216 9.538 7.962 12.573 10.412-24.381 23.017-12.395 44.707-22.367 60.604 20.965-1.403 36.522-16.816 40.22-33.505l5.917 10.08c2.117-6.634 5.993-13.525 8.416-18.424 4.718 9.824 12.293 10.028 19.587 10.079-1.658-23.527 27.876-47.182 14.919-74.027-2.6-5.358-.918-11.942 4.668-14.775 19.842-10.054 10.635 31.694 30.452 32.969-3.801-4.771-5.203-14.672-5.739-15.539 4.183 1.097 14.232 7.527 18.771-.716-11.502-6.174-14.817-15.667-16.68-25.186m-37.057-34.143c1.557 8.013 2.347 16.893 1.99 27.152-.331 11.151-2.551 20.95-6.096 29.728.892 12.198-.178 33.021-14.155 46.774 9.462-12.044 11.529-31.566 10.687-39.195-10.967 21.104-42.132 50.295-57.231 69.893 15.072-25.212 52.053-54.685 59.985-88.674-5.101 5.282-11.196 5.844-22.826 5.103 12.752-1.556 19.919-4.67 24.381-13.142.664-4.389 1.098-9.084 1.276-14.085.434-13.448-4.029-29.473-13.313-47.029.077 11.023-8.646 28.325-28.105 31.182 17.445-7.656 27.748-24.88 22.163-41.543a232 232 0 0 0-12.344-17.939c-2.296-2.935-4.54-5.792-6.758-8.421 2.346 8.497-7.932 17.276-14.819 18.756 3.75-3.649 11.733-15.489-6.732-35.266 5.177 2.45 10.89 5.895 15.2 9.263-33.589-36.286-61.158-37.307-73.885-55.578 18.388 12.555 67.025 19.343 88.855 13.398-12.037 8.062-41.111 7.323-48.227 5.817 23.693 23.043 75.466 46.851 84.392 68.031-12.599-13.805-20.785-16.357-31.625-19.93 8.595 12.836 16.297 24.115 21.628 37.205 13.797 29.933 32.211 30.29 33.409 54.966-6.273-19.063-19-23.911-27.85-36.466"/><path fill="#fff" d="M369.939 202.941c-5.535 7.604-15.608 12.708-27.06 12.708-2.678 0-5.254-.306-7.702-.766.689 3.139 2.295 6.38 5.636 9.161-1.351 9.111 2.577 17.634 12.345 19.853 1.045 4.645 3.901 8.141 8.748 9.799l-6.811 7.86c-2.627 3.011-6.044 3.98-8.798 3.623l-30.4-3.445c1.325-3.367-2.194-7.272-11.835-5.613l11.937-33.429-7.27-15.49-13.797 11.79-1.02 35.061-5.942-2.883c-7.652-3.317-9.922 10.641-2.627 10.692l2.933.025c-.204 1.43.255 3.012 1.402 3.522-1.377.561-1.785 3.139-.076 4.057-1.734.842-1.989 3.496-.587 4.644-1.505 2.578-1.786 8.166 3.546 9.569 4.386 1.149 7.14-3.546 8.033-6.277l47.309 14.647c6.657 1.915 11.452.843 17.011-4.032l12.345-10.793c-1.557 7.069.968 13.422 6.35 15.541 0 0-.842 6.481-.51 9.16l16.552.026h26.064v-77.83c0-7.247 2.067-14.494 4.617-21.18zm-70.845 130.961.918 1.148c1.275 1.581 2.04 1.199 3.494.357l2.142-1.148c1.352-1.022 10.151 2.347 10.635-4.976.97 5.461-5.534 16.969-1.606 23.399l5.279 8.651-17.241.255c-1.887 0-2.881 1.148-3.391 2.169l-4.515 9.365c-1.174 2.475-1.097 5.027.383 6.736l3.06 3.446s2.5-2.118 3.315-4.9l-1.351-1.403c-1.122-1.071-1.122-2.093-.51-3.419l2.779-5.767c1.072-2.272 2.169-2.756 4.617-2.17l13.95 3.012c1.021.255 2.679.74 3.673-.97 1.709-3.037 4.718-3.241 7.779-2.756 7.65 1.148 25.325 2.986 31.625-4.389 7.395 9.824 21.856 9.824 20.913 14.978l-3.061 16.893h4.59l2.806-17.275c.306-2.016 1.556-4.772-.612-6.328-.892-.689-1.3-1.046-3.316-4.517-2.626-4.593-2.498-11.483-5.024-17.428 2.398-2.833 4.999-3.803 7.269-3.267 5.101 1.25 6.478 10.054 13.721 17.225-.815-3.19-1.173-6.686-2.882-9.722 0 0 5.024 3.904 6.325 8.472.817 2.857 1.658 4.95 4.233 6.276 1.71.613 3.75-.204 5.791-2.653 0 0-4.77-6.788-8.264-11.228-4.795-6.099-11.197-12.223-19.918-11.509-2.755.23-5.408 1.481-7.932 2.986-9.921-5.563-17.623.332-20.684.332l-18.567-1.097c-3.646-.23-6.529-4.466-6.529-4.466-.459-15.719-13.083-21.972-17.444-21.972 0 0 .408-2.831-.74-3.826l-3.877 4.873-10.762-3.929 8.442 6.914-9.156 10.642c-.943 1.046-.816 2.423-.357 2.986"/><path fill="#fff" d="M286.923 355.975c-2.6 2.016-2.473 4.823-.917 7.962l1.555 2.908 4.055-3.087-.918-1.991c-.663-1.403-.637-2.831.51-3.725l5.815-4.389c1.633-1.199 2.143-1.327 3.877-1.072l12.267 2.578s-1.861-2.705-2.474-5.462l-11.553-1.53c-1.632-.204-2.627.484-4.055 1.581zm78.453 36.438h4.642l7.447-18.347c.255-.639.612-.919.893-1.455-3.342-1.327-5.305-2.245-8.085-3.853 1.861 2.501 3.315 3.572 2.55 5.895zm3.951-248.162 8.594-49.428-32.567 11.075v50.959zM350.862 110.9l21.601-7.962s-4.208 3.42-9.232 6.864c-4.463 3.088-12.369 6.38-12.369 6.38zm0 11.967 19.765-7.068s-2.372 2.5-7.371 5.945c-4.463 3.063-12.368 6.355-12.368 6.355v-5.232zm0 12.708 17.393-6.685s0 2.117-5.024 5.537c-4.463 3.088-12.369 6.38-12.369 6.38z"/><path fill="#fff" d="m311.384 187.964.714 1.148h6.708l.076 1.174c.077 1.123.332 2.271.714 3.445 1.046 3.189 3.112 6.532 6.427 9.238 3.851 3.112 9.411 5.358 16.807 5.358 16.042 0 23.285-10.385 23.974-18.041l.051-1.174h6.732l.715-1.148c6.325-9.901 14.053-20.9 23.03-22.481l-24.484-14.213-30.018 16.33-30.044-16.33-24.458 14.213c8.978 1.556 16.706 12.58 23.056 22.481"/><path fill="#fff" d="M340.309 156.857v-50.959l-32.517-11.075 8.543 49.428zm-5.483-15.999s-7.907-3.318-12.37-6.38c-5.024-3.42-5.024-5.563-5.024-5.563l17.419 6.685v5.258zm0-29.958v5.282s-7.907-3.292-12.37-6.38a161 161 0 0 1-9.283-6.864zm0 11.967v5.257s-7.907-3.292-12.37-6.354c-5.05-3.445-7.395-5.945-7.395-5.945zm8.026-49.835c-18.593 0-32.543 6.1-35.579 13.244l35.579 14.061 35.527-14.06c-3.01-7.145-16.935-13.245-35.527-13.245m.005-20.415c13.696 0 27.416 4.16 36.648 9.543 1.506-4.976 3.112-8.523 5.306-12.58l-8.416 1.302-6.811-14.546-12.725 6.763-14.002-13.856-14.027 13.856-12.701-6.763-6.861 14.546-8.416-1.301c2.193 4.056 3.774 7.603 5.331 12.58 9.258-5.385 22.928-9.544 36.674-9.544M574.939 164.64c4.59-.587 8.289-2.119 12.803-5.486-9.717-2.578-30.07-9.953-47.437-6.635-5.739.765-8.926 3.088-6.887 4.414 9.335 6.2 20.863 20.568 29.253 37.333 7.371-9.161 4.285-21.18 2.729-24.625 14.69 8.855 18.542 13.167 25.352 11.483-3.648-5.589-8.774-10.616-15.813-16.484m-451.902 29.6c8.391-16.765 19.918-31.131 29.278-37.332 2.092-1.327-1.148-3.65-6.835-4.415-17.394-3.292-37.796 4.057-47.513 6.635 4.565 3.368 8.186 4.899 12.828 5.486-7.064 5.894-12.191 10.896-15.838 16.485 6.861 1.684 10.686-2.629 25.35-11.483-1.504 3.47-4.616 15.464 2.73 24.624"/><path fill="#000" fill-rule="evenodd" d="M224.873 349.85c6.758-5.36 12.368-8.038 12.088-21.027-10.151 5.205-38.944 4.925-50.982-11.662-3.392-4.721.23-7.094 3.519-3.368 8.238 9.339 23.489 5.103 29.049 2.424-.892-3.215-3.366-7.4-5.432-9.186 2.092-2.042 7.983-5.104 9.181-10.361-3.136-1.709-15.353-2.935-15.353-2.935 1.964-1.888 4.412-4.516 2.934-11.533-12.472 3.828-27.902-1.379-31.396-5.997-3.443-4.542.077-8.804 2.983-5.792 6.224 6.532 36.879 14.009 48.28 2.654-4.234-1.175-8.901-4.952-9.743-7.299 10.559-1.071 18.975-7.298 19.664-15.056-5.841 0-16.859-.433-20.633-3.241 5.05-1.862 8.263-3.699 9.87-9.364-19.306-1.174-20.837-15.515-20.939-17.888 12.574 7.247 34.711 4.032 28.972-13.831-10.456-.561-20.989-17.479 7.754-33.02 26.142-14.162 55.853-29.422 53.226-54.557-1.709-16.077-28.156-27.05-31.522-35.19-11.044 5.257-13.262 11.356-8.289 21.589 0 0-24.611 2.449-26.55-12.708-.841-6.788 3.698-13.141 8.57-18.015-2.755 0-21.297-4.977-26.882 10.13-10.38-7.094-19.28-6.839-26.268.663 11.17 6.635 18.082 29.397 36.547 36.109-13.135 7.118-34.38 4.133-46.775-17.762-11.731 17.685-18.49 35.19 6.683 53.894-45.78 20.848-45.448 60.708-85.285 79.693 4.029 10.845 12.547 10.845 23.413 9.16-17.216 22.379-2.551 45.805-29.815 55.374 2.55 9.135 7.677 16.434 17.726 13.755-2.857 4.465-4.744 4.363-9.182 9.263 14.894 9.39 32.569 2.602 36.573-27.535.714-5.384 8.11-2.015 5.559 3.267-16.986 35.138 25.964 61.575 10.763 87.348 13.389-.562 23.616-1.608 29.177-6.125 2.728 5.41 4.387 10.769 3.775 16.051 7.395-1.505 10.099-5.869 10.609-10.922 4.846 14.163 22.188 29.295 49.937 29.295-14.717-21.027-1.021-42.335-21.806-66.295m-27.392 25.9-5.916 10.079c-2.118-6.634-5.969-13.524-8.442-18.423-4.769 9.824-12.293 10.028-19.536 10.079 1.606-23.527-27.952-47.182-14.946-74.027 2.602-5.359.893-11.942-4.693-14.775-19.816-10.054-10.635 31.694-30.425 32.969 3.775-4.771 5.202-14.673 5.763-15.54-4.208 1.098-14.282 7.528-18.821-.689 11.579-6.303 14.894-15.796 16.705-25.314 2.295-12.045 3.366-17.633 5.687-22.583 2.448-5.282 6.35-9.876 14.716-20.721-1.989.281-24.254 5.002-29.278 2.655 38.536-23.681 29.864-53.767 88.6-80.587-15.405-11.456-31.141-20.592-19.867-42.461 16.092 19.343 46.672 12.657 63.198 3.674-16.322-3.265-37.364-17.658-42.337-33.683 6.146-.944 14.129 5.742 18.695 8.854 2.218-5.919 3.086-12.784 10.252-14.264-9.564 20.44 9.309 31.106 27.315 31.183 2.805 0 14.435-1.174 14.435-1.174-1.862-3.828-9.386-14.29-3.928-18.5 4.412 4.134 9.666 7.426 14.435 11.1 35.017 27.1-16.628 52.21-37.746 63.616-33.129 17.914-24.253 39.247-10.43 44.682-.051 2.399-1.53 3.471-3.826 4.236-9.691 3.215-18.771-3.7-26.498-8.14.459 13.371-.46 26.232 14.333 33.581l-10.177 3.7c8.748 6.661 11.427 10.182 21.959 11.56-4.922 2.398-11.017 2.347-16.245 2.832 1.326 3.7 2.397 8.727 5.152 12.045-21.551 2.552-30.197-9.748-36.879-9.263-14.231 1.071-13.339 27.866 21.679 27.917l-3.622 5.996s6.63 3.879 12.727 4.619c-2.322 1.889-4.566 4.44-6.53 6.38l5.585 4.822c-14.307 2.552-18.337-12.656-27.621-5.334-14.154 11.229 17.037 34.884 46.927 31.362-2.498 3.216-9.538 7.962-12.547 10.411 24.356 23.018 12.343 44.708 22.367 60.606-21.015-1.379-36.572-16.816-40.22-33.48" clip-rule="evenodd"/><path fill="#000" fill-rule="evenodd" d="M159.05 291.695c5.075 5.283 11.197 5.844 22.8 5.103-12.777-1.556-19.943-4.669-24.406-13.141a130 130 0 0 1-1.25-14.086c-.408-13.447 4.03-29.473 13.313-47.029-.051 10.999 8.645 28.3 28.105 31.182-17.495-7.655-27.773-24.88-22.163-41.543a256 256 0 0 1 12.344-17.939c2.295-2.933 4.539-5.792 6.733-8.421-2.347 8.498 7.932 17.276 14.818 18.757-3.724-3.65-11.732-15.464 6.759-35.241-5.153 2.45-10.866 5.895-15.201 9.264 33.564-36.287 61.183-37.308 73.859-55.579-18.363 12.555-66.998 19.343-88.855 13.398 12.063 8.063 41.112 7.323 48.227 5.817-23.667 23.042-75.389 46.851-84.366 68.031 12.599-13.831 20.76-16.357 31.675-19.904-8.594 12.835-16.321 24.114-21.653 37.205-13.772 29.907-32.185 30.289-33.384 54.94 6.275-19.113 19.026-23.962 27.85-36.517-1.555 8.013-2.295 16.893-2.014 27.152.306 11.152 2.55 20.95 6.095 29.728-.892 12.198.178 33.02 14.155 46.774-9.488-12.019-11.528-31.566-10.686-39.195 10.941 21.103 42.132 50.296 57.205 69.893-15.073-25.186-52.028-54.634-59.96-88.649m345.246-101.333c10.839 3.573 19.026 6.099 31.624 19.929-8.926-21.18-60.724-44.987-84.392-68.03 7.116 1.48 36.19 2.246 48.229-5.818-21.832 5.945-70.468-.842-88.857-13.397 12.702 18.271 40.297 19.291 73.885 55.578-4.31-3.368-10.023-6.814-15.2-9.263 18.465 19.777 10.482 31.616 6.734 35.266 6.885-1.48 17.163-10.258 14.817-18.756 2.219 2.628 4.463 5.486 6.758 8.421a253 253 0 0 1 12.344 17.939c5.611 16.689-4.692 33.913-22.137 41.543 19.459-2.858 28.182-20.184 28.08-31.183 9.308 17.557 13.746 33.581 13.338 47.029-.178 5.003-.612 9.672-1.275 14.087-4.488 8.472-11.655 11.585-24.408 13.141 11.631.715 17.726.179 22.826-5.103-7.931 34.015-44.886 63.463-59.985 88.675 15.099-19.599 46.239-48.791 57.232-69.894.841 7.63-1.2 27.177-10.687 39.195 13.976-13.754 15.048-34.577 14.154-46.774 3.52-8.778 5.739-18.577 6.096-29.729.332-10.257-.459-19.163-1.989-27.15 8.849 12.555 21.576 17.403 27.875 36.516-1.198-24.676-19.612-25.058-33.41-54.965-5.355-13.167-13.058-24.447-21.652-37.257" clip-rule="evenodd"/><path fill="#000" fill-rule="evenodd" d="M564.179 246.322c10.839 1.709 19.358 1.709 23.413-9.135-39.837-18.986-39.505-58.819-85.285-79.693 25.172-18.679 18.389-36.21 6.682-53.894-12.369 21.895-33.69 24.88-46.774 17.761 18.414-6.711 25.377-29.474 36.547-36.108-6.988-7.502-15.914-7.757-26.295-.663-5.61-15.107-24.126-10.13-26.906-10.13 4.846 4.847 9.437 11.202 8.57 18.015-1.913 15.157-26.524 12.707-26.524 12.707 4.973-10.232 2.753-16.33-8.289-21.588-3.367 8.14-29.788 19.114-31.523 35.19-2.652 25.135 27.11 40.394 53.227 54.557 28.742 15.54 18.21 32.484 7.778 33.02-5.789 17.863 16.348 21.077 28.947 13.831-.051 2.373-1.658 16.714-20.964 17.888 1.632 5.664 4.82 7.502 9.87 9.365-3.775 2.832-14.792 3.241-20.607 3.241.688 7.757 9.13 14.009 19.689 15.055-.842 2.348-5.534 6.124-9.743 7.298 11.4 11.356 42.056 3.879 48.279-2.653 2.856-3.012 6.351 1.25 2.933 5.792-3.52 4.644-18.924 9.849-31.421 5.996-1.428 6.992.969 9.647 2.933 11.534 0 0-12.216 1.225-15.379 2.935 1.199 5.257 7.116 8.294 9.181 10.36-2.091 1.787-4.565 5.972-5.457 9.186 5.61 2.706 20.862 6.916 29.048-2.423 3.316-3.7 6.938-1.353 3.545 3.368-12.037 16.586-40.831 16.842-51.007 11.661-.281 12.989 5.33 15.668 12.089 21.027-20.812 23.962-7.065 45.269-21.781 66.245 27.723 0 45.066-15.133 49.912-29.295.561 5.027 3.213 9.416 10.583 10.922-.56-5.283 1.071-10.641 3.775-16.051 5.611 4.517 15.838 5.563 29.227 6.124-15.174-25.773 27.774-52.209 10.738-87.347-2.525-5.283 4.871-8.65 5.585-3.266 3.979 30.136 21.678 36.924 36.598 27.533-4.488-4.899-6.351-4.797-9.207-9.263 10.049 2.68 15.15-4.619 17.725-13.754-27.135-9.543-12.471-32.969-29.712-55.348m2.296 59.814c.536.867 1.938 10.769 5.738 15.54-19.816-1.276-10.635-43.024-30.452-32.969-5.585 2.806-7.242 9.391-4.667 14.774 12.956 26.846-16.577 50.5-14.919 74.028-7.294-.051-14.869-.255-19.587-10.08-2.424 4.9-6.325 11.79-8.442 18.425l-5.917-10.081c-3.673 16.689-19.23 32.102-40.194 33.505 9.972-15.871-2.015-37.562 22.367-60.604-3.061-2.45-10.074-7.196-12.599-10.411 29.916 3.521 61.081-20.134 46.927-31.362-9.258-7.324-13.339 7.885-27.596 5.333l5.587-4.823c-1.965-1.939-4.234-4.465-6.556-6.379 6.097-.74 12.727-4.618 12.727-4.618l-3.622-5.998c35.018-.051 35.859-26.844 21.704-27.916-6.657-.484-15.327 11.84-36.878 9.263 2.729-3.317 3.851-8.344 5.177-12.044-5.203-.485-11.349-.434-16.245-2.833 10.532-1.352 13.184-4.899 21.932-11.533l-10.15-3.726c14.766-7.375 13.823-20.211 14.282-33.582-7.703 4.44-16.832 11.33-26.448 8.141-2.295-.766-3.799-1.838-3.85-4.236 13.848-5.462 22.672-26.769-10.432-44.683-21.091-11.406-72.762-36.515-37.771-63.59 4.795-3.675 9.997-6.992 14.384-11.1 5.484 4.21-2.014 14.673-3.876 18.5 0 0 11.63 1.174 14.384 1.174 18.032-.077 36.93-10.743 27.365-31.208 7.167 1.48 8.009 8.395 10.202 14.29 4.591-3.114 12.548-9.773 18.746-8.83-5.024 16-26.015 30.418-42.362 33.684 16.5 8.982 47.105 15.668 63.198-3.675 11.273 21.869-4.438 31.004-19.867 42.462 58.761 26.794 50.064 56.905 88.625 80.585-4.973 2.348-27.314-2.372-29.303-2.653 8.415 10.845 12.343 15.438 14.741 20.721 2.346 4.95 3.367 10.513 5.687 22.583 1.836 9.518 5.177 19.01 16.705 25.313-4.514 8.141-14.562 1.71-18.745.613m-279.806 65.863 8.391-7.119-1.275-2.552c-.919-1.837-.434-1.939.536-2.654l4.438-3.291c1.019-.843 2.09-.741 3.34-.434l13.287 3.113h-14.027c-3.239.204-4.182 1.455-5.355 3.853l-.969 1.965-3.596 7.4c-1.224 2.552-1.862 5.946 1.351 9.774l2.551 3.036-5.152 10.437h4.336l3.57-7.247c.281-.256 5.56-5.078 6.682-10.054-1.53-1.25-2.602-2.119-1.759-3.853l1.606-3.471c.536-1.148.714-1.607 2.244-1.327l13.925 3.011c1.735.486 4.285 1.251 6.147-1.556 1.913-2.91 2.168-2.603 6.605-2.169l7.116.765c9.717.919 19.434-1.506 23.209-4.516 1.326 3.01 3.952 5.333 5.177 7.681.459.867-.306 2.092-.892 3.623l-7.983 19.087h12.317l6.963-17.403c.638-1.659 1.581-2.986 2.295-3.649l-4.003 21.078h11.961l3.162-20.848c.689-4.644.281-6.124-1.938-8.038-4.974-4.211-4.872-13.04-6.478-18.399.841-.484 1.836-.739 3.01-.586 2.601.229 4.565 6.889 7.625 11.176 6.121 8.599 14.46 18.093 24.024 4.721a28 28 0 0 0-3.085-4.236l-2.678-3.138c-1.556-1.736-8.952-10.208-12.038-13.245-7.014-7.068-17.776-5.996-22.061-2.551-9.717-5.103-19.969.255-22.392.051l-16.731-1.021c-.765-.051-1.912-.306-2.728-1.608l3.111-1.02c-2.907-12.121-10.227-22.252-23.004-24.013 0 0-.741-3.828-2.704-4.568l-3.826 4.492a13.6 13.6 0 0 0-3.213.893l-16.322-6.073 12.242 12.376s-6.351 9.008-8.162 10.845c-1.198 1.684-1.096 2.985.255 4.594l2.372 3.112c1.225 1.608 2.576 1.557 4.539.562l2.679-1.404c1.173-.969 5.1.944 6.783-.587-1.071 3.522-1.606 6.916-1.861 9.595l-10.992-1.327c-2.398-.332-3.494 0-4.948 1.148l-9.385 7.222c-3.061 2.348-4.004 6.405-2.117 10.36zm90.793 2.067-7.446 18.373h-4.642l7.448-17.786c.765-2.297-.69-3.368-2.551-5.868 2.755 1.556 4.744 2.576 8.085 3.853-.281.51-.638.791-.894 1.428m-71.818-39.782-2.116 1.123c-1.48.842-2.22 1.225-3.495-.357l-.917-1.175c-.459-.561-.612-1.913.331-2.985l9.13-10.641-8.416-6.916 10.711 3.956 3.928-4.9c1.147.97.739 3.803.739 3.803 4.336 0 16.961 6.278 17.445 21.996 0 0 2.857 4.21 6.503 4.44l18.593 1.123c3.086 0 10.789-5.869 20.684-.331 2.499-1.506 5.177-2.705 7.932-3.012 8.721-.637 15.149 5.435 19.918 11.56 3.493 4.44 8.289 11.227 8.289 11.227-2.066 2.451-4.081 3.267-5.79 2.655-2.575-1.327-3.417-3.394-4.234-6.278-1.3-4.568-6.324-8.472-6.324-8.472 1.708 3.062 2.065 6.533 2.882 9.723-7.269-7.197-8.646-15.975-13.721-17.199-2.245-.561-4.871.408-7.295 3.214 2.551 5.947 2.424 12.836 5.05 17.455 1.99 3.445 2.423 3.751 3.316 4.517 2.142 1.531.943 4.313.612 6.328l-2.755 17.275h-4.642l3.061-16.892c.943-5.155-13.517-5.155-20.913-14.979-6.3 7.374-23.973 5.537-31.625 4.389-3.086-.459-6.095-.255-7.779 2.781-.994 1.71-2.651 1.2-3.672.945l-13.951-3.011c-2.448-.562-3.519-.077-4.591 2.168l-2.779 5.768c-.612 1.352-.586 2.347.535 3.445l1.326 1.403c-.79 2.756-3.314 4.874-3.314 4.874l-3.036-3.42c-1.479-1.735-1.555-4.236-.382-6.685l4.514-9.442c.535-1.046 1.504-2.169 3.391-2.169l17.241-.255-5.279-8.599c-3.928-6.457 2.602-17.965 1.606-23.401-.535 7.273-9.334 3.956-10.711 4.951m-18.72 21.691 8.162-6.227c1.453-1.097 2.422-1.812 4.081-1.608l11.527 1.531c.637 2.756 2.474 5.461 2.474 5.461l-12.268-2.577c-1.733-.204-2.243-.128-3.876 1.046l-5.815 4.389c-1.147.893-1.198 2.323-.535 3.726l.943 2.015-4.055 3.063-1.556-2.91c-1.581-3.087-1.682-5.919.918-7.909m35.556-221.52c4.463 3.087 12.369 6.379 12.369 6.379v-5.257l-17.419-6.66s0 2.144 5.05 5.538m12.34-6.331v-5.256l-19.765-7.069s2.346 2.501 7.396 5.946c4.463 3.062 12.369 6.379 12.369 6.379m.005-11.943v-5.282l-21.653-7.962s4.234 3.42 9.284 6.865c4.463 3.087 12.369 6.379 12.369 6.379" clip-rule="evenodd"/><path fill="#000" fill-rule="evenodd" d="M395.647 187.964h22.138c-.918-3.216-4.362-6.457-10.814-6.457-6.12 0-9.793 3.522-11.324 6.457m-23.157-85.027-21.601 7.962v5.282s7.905-3.292 12.369-6.379c5.024-3.445 9.232-6.865 9.232-6.865m-4.208 25.98-17.393 6.686v5.256s7.905-3.318 12.369-6.379c5.024-3.419 5.024-5.563 5.024-5.563m2.346-13.118-19.766 7.069v5.256s7.931-3.292 12.369-6.353c5.05-3.471 7.397-5.972 7.397-5.972m-91.939 65.708c-6.452 0-9.895 3.241-10.813 6.457h22.163c-1.582-2.935-5.203-6.457-11.35-6.457" clip-rule="evenodd"/><path fill="#000" fill-rule="evenodd" d="M386.826 88.751c0-12.453-20.914-23.605-43.995-23.605s-43.993 11.152-43.993 23.605l.484 3.062 9.181 52.898-43.612 25.441c-4.641 2.731-10.456 10.234-11.195 17.787h7.957c1.326-7.553 7.268-15.923 18.414-15.413 10.074.536 16.041 6.659 21.958 15.413l1.531 2.296 2.193 3.445h-64.143c4.719 9.467 9.182 19.521 9.182 30.417v133.434c0 34.321 26.346 50.678 54.884 50.678 22.036 0 25.02-.996 37.185 11.176 12.114-12.172 15.098-11.176 37.184-11.176 28.513 0 54.885-16.357 54.885-50.678V224.123c0-10.897 4.463-20.95 9.181-30.417h-64.193l2.219-3.445 1.53-2.296c5.891-8.754 11.885-14.878 21.959-15.414 11.094-.51 17.087 7.86 18.388 15.414h7.931c-.713-7.554-6.554-15.082-11.17-17.787l-43.611-25.441 9.207-52.898zm-79.062 6.072 32.543 11.076v50.959l-23.975-12.606zm8.008 108.12c4.284 5.869 11.222 10.207 19.434 11.891.689 3.088 2.372 6.481 5.636 9.212-1.352 9.11 2.55 17.607 12.344 19.853 1.02 4.645 3.902 8.141 8.722 9.799l-6.809 7.86c-2.602 3.011-5.993 3.98-8.799 3.623l-30.401-3.445c1.327-3.368-2.193-7.273-11.808-5.613l11.961-33.429-7.294-15.49-13.823 11.79-1.02 35.061-5.866-2.884c-7.727-3.316-9.972 10.642-2.627 10.693l2.907.025c-.178 1.429.256 3.012 1.378 3.496-1.378.587-1.786 3.19-.051 4.109-1.76.816-1.99 3.47-.586 4.618-1.531 2.577-1.761 8.166 3.569 9.569 4.362 1.148 7.091-3.547 7.983-6.277l47.284 14.647c6.708 1.915 11.452.842 17.012-4.032l12.344-10.793c-1.556 7.068.994 13.422 6.376 15.54 0 0-.765 6.354-.536 9.186H259.995v-77.829c0-7.248-2.091-14.494-4.591-21.18zm50.854 29.524c-2.601 4.976-2.346 10.693.714 15.872l-2.04 1.99c-8.875-1.097-12.369-14.34-12.369-14.34-.179 1.199-.281 2.347-.255 3.521-5.178-1.914-8.442-6.507-8.186-12.81 1.963 1.097 4.156 1.863 6.503 2.271l.612-3.879c-6.197-1.071-9.819-4.95-11.196-9.543-.306-.026-.561-.102-.843-.128 1.098.077 2.194.179 3.316.179 3.673 0 7.167-.561 10.431-1.531 2.576 3.675 7.142 6.303 11.732 6.813-.739 3.062-.382 6.864 1.581 11.585m13.135 35.01a13.4 13.4 0 0 0-2.066 4.083l-4.947 4.542c.994-7.246-3.877-15.794-8.315-19.291l5.254-5.154 1.045 1.072c-1.759 4.618 1.684 13.677 9.029 14.748m-23.897-2.27 4.081-4.007c4.131 3.624 9.589 11.713 7.881 19.419l-4.438 4.083c-.919.894-1.862 1.532-2.831 2.118 2.78-6.864-.765-17.428-4.693-21.613m-8.774 3.394h.128c1.479.229 3.061-.026 4.489-.613 3.111 4.44 5.534 14.545 1.81 20.848-2.116.051-4.182-.332-6.121-.893l-1.529-.459c3.137-4.874 2.702-13.499 1.223-18.883m-10.277-1.277 5.738.715c.918 4.772.306 13.015-2.729 17.71l-6.682-1.94c2.933-3.981 4.31-12.172 3.673-16.485m-11.962-1.454 6.963.816c.688 3.828-.612 11.968-3.239 15.847l-7.09-2.042c2.83-3.751 3.85-10.359 3.366-14.621m-28.182-1.863c-3.238 1.047-4.667-1.301-4.539-3.291 6.351-2.323 9.181-.818 11.043.357 1.709 1.071 3.137 4.134 5.432 6.047-.382 2.603-1.172 6.38-2.117 8.906-6.503-1.658-6.834-7.4-4.412-10.896-1.352-1.582-2.779-1.991-5.407-1.123m-4.539 12.682s1.938.817 4.386.996c-.28 1.352-1.326 2.628-2.983 2.271-1.378-.307-1.99-1.99-1.403-3.267m-6.402-18.628c-1.606-1.071-.892-3.419.893-3.419 1.964.051 4.565 2.271 7.141 3.368 0 0-6.759.919-8.034.051m6.606 13.525c1.403 1.353 5.611.842 5.611.842l.153.843c-1.837 2.449-6.937 1.352-5.764-1.685m5.662-2.781c-3.01 1.199-6.096-.435-5.153-2.374 1.404 1.276 5.306.638 5.306.638zm4.438-35.037-5.765 21.001 1.965-33.887 8.926-7.63 4.54 9.978-11.478 32.918 3.036-22.15c.28-1.582-.969-1.76-1.224-.23m.408 25.467s6.426-.306 8.237.383c1.327.562.433 2.807-1.301 2.552-1.81-.23-6.936-2.935-6.936-2.935m10.074 5.104 6.987.868c.536 3.828-.459 10.309-2.958 13.932l-6.759-1.964c1.786-4.262 2.22-8.268 2.73-12.836m112.803 93.217c0 16.229-7.499 28.554-19.969 35.393l4.463-9.084h-4.336l-5.739 11.636c-5.942 2.245-12.675 3.495-20.122 3.495-22.75 0-28.768.92-37.185 9.315-8.442-8.395-14.46-9.315-37.184-9.315-7.396 0-14.129-1.199-20.046-3.444h.153l5.738-11.687h-4.31l-5.024 10.232a41 41 0 0 1-3.495-1.837l4.132-8.395h-4.285l-3.059 6.251c-9.743-7.17-15.482-18.398-15.482-32.56v-51.037h165.699v51.037zm4.616-154.613c-2.576 6.686-4.642 13.932-4.642 21.18v77.829h-9.054c-4.106-3.98-7.575-17.25-7.575-17.25-2.243 4.773.332 14.444 2.73 17.25h-11.656c-2.881-3.903-5.381-17.735-5.381-17.735-3.493 3.981-1.275 14.724.892 17.735h-7.752c-.485-5.537 1.096-11.559 1.096-11.559-4.055-.74-8.365-2.884-8.34-7.375 2.041 1.913 2.883 1.888 5.714 1.837l3.289-2.602c-10.915.357-11.425-11.637-2.754-17.25-8.646.28-15.099-4.874-11.961-14.061-6.146-3.189-8.315-13.601-3.775-18.169-3.289-3.572-3.826-10.589-1.734-15.362-4.361 0-9.258-1.735-11.987-4.721-.204.103-.459.179-.689.256 5.458-2.22 10.074-5.691 13.186-9.978h60.393zm-33.002-37.46c-8.977 1.557-16.705 12.554-23.03 22.482l-.714 1.148h-6.759l-.025 1.173c-.689 7.656-7.957 18.041-23.974 18.041-7.395 0-12.981-2.271-16.806-5.359-3.316-2.705-5.408-6.047-6.428-9.237a15.4 15.4 0 0 1-.714-3.445l-.051-1.173h-6.707l-.715-1.148c-6.35-9.902-14.078-20.9-23.03-22.482l24.459-14.213 30.043 16.331 29.993-16.331zm-28.003-21.231-23.948 12.606v-50.959l32.543-11.076zm-26.473-43.916-35.577-14.06c3.008-7.145 16.959-13.245 35.577-13.245 18.592 0 32.517 6.1 35.527 13.244z" clip-rule="evenodd"/><path fill="#000" fill-rule="evenodd" d="m421.917 253.238.076-3.905c-11.961-.28-14.715-14.392-14.715-14.392-3.495 10.386 5.636 18.144 14.639 18.297m-15.098 23.91-1.198-3.7c-10.201 2.602-15.481-13.575-15.481-13.575-3.264 11.763 8.11 20.082 16.679 17.275m7.091-15.004c-12.191 1.94-17.189-12.248-17.189-12.248-1.352 7.732 3.647 15.566 11.732 16.382-1.837 10.08 7.523 15.26 15.633 11.662l-1.173-3.522c-7.039 2.374-13.644-4.593-9.003-12.274m-7.296-40.496.102-3.904c-16.093-3.318-14.741-14.392-14.741-14.392-3.468 10.436 5.661 18.143 14.639 18.296M304.651 383.864l-5.763 11.686h4.335l5.739-11.686zm8.698 0-5.739 11.686h4.361l5.687-11.686zm34.837 0-5.738 11.686h4.31l5.763-11.686zm8.72 0-5.789 11.686h4.361l5.712-11.686zm-17.418 0-5.763 11.686h4.335l5.738-11.686zm50.879 11.686h4.335l5.739-11.686h-4.336zm-68.296-11.686-5.738 11.686h4.335l5.738-11.686zm8.669 0-5.738 11.686h4.361l5.738-11.686zm-19.687-62.826c-.79 0-1.479.766-1.479 1.761 0 .97.689 1.761 1.479 1.761.817 0 1.531-.791 1.531-1.761-.025-.995-.714-1.761-1.531-1.761m31.805-263.775c17.853 0 32.16 5.92 40.04 12.273 0 0 2.373-14.187 10.356-26.64l-14.385 1.608-7.524-16.025-14.46 7.528-14.027-13.934-14.027 13.934-14.512-7.528-7.524 16.025-14.384-1.608c8.009 12.453 10.354 26.64 10.354 26.64 7.907-6.353 22.24-12.273 40.093-12.273m-33.589-6.38 6.861-14.545 12.701 6.762 14.027-13.856L356.885 43.1l12.701-6.762 6.784 14.545 8.442-1.301c-2.169 4.057-3.801 7.603-5.305 12.58-9.232-5.385-22.954-9.544-36.649-9.544-13.747 0-27.442 4.16-36.675 9.544-1.53-4.977-3.137-8.523-5.33-12.58z" clip-rule="evenodd"/><path fill="#000" fill-rule="evenodd" d="M357.544 28.605c2.091.18 3.953-1.403 4.131-3.47.204-2.092-2.856-7.655-2.856-7.655s-4.565 4.925-4.718 7.017c-.204 2.042 1.377 3.904 3.443 4.108m23.565 8.55c1.862.995 4.132.255 5.127-1.608 1.019-1.837.356-8.14.356-8.14s-6.069 2.73-7.063 4.593c-.97 1.837-.255 4.134 1.58 5.155m-52.967-8.55c2.117-.204 3.672-2.041 3.494-4.108-.204-2.092-4.718-7.017-4.718-7.017s-3.036 5.588-2.857 7.655c.153 2.067 2.015 3.65 4.081 3.47m-23.541 8.55c1.862-1.021 2.55-3.318 1.581-5.155-.969-1.863-7.065-4.593-7.065-4.593s-.637 6.303.384 8.14a3.74 3.74 0 0 0 5.1 1.608m282.703 129.631c5.025-1.787 8.9-6.584 10.839-11.024-12.777-1.837-46.723-16.102-74.624-4.491 10.457-9.926 19.842-11.202 20.734-25.493 4.336 3.114 11.656 4.874 15.788-2.551-2.882-8.497-10.152-1.608-11.171-3.955-1.428-3.267 9.155.995 11.426-10.055-8.238-2.831-10.687 3.905-12.166 2.348-1.351-1.48 5.228-4.312.383-13.218-8.57 5.027-4.107 10.666-5.917 11.304-2.194.868-.459-6.047-9.946-5.716-.945 10.182 8.901 10.513 7.293 12.121-1.963 1.965-4.514-5.844-11.68-1.888.127 8.216 6.783 12.733 13.645 10.794-1.123 15.617-15.456 12.708-26.117 30.315 22.597 11.586 32.824 31.796 46.723 45.779 4.591-3.266 12.446-17.76 12.446-17.76 15.047 11.661 25.631.051 25.631.051-5.177-5.308-5.381-9.339-13.287-16.561m-21.933 2.833c1.555 3.444 4.642 15.463-2.729 24.624-8.391-16.766-19.919-31.132-29.253-37.332-2.041-1.328 1.122-3.649 6.886-4.416 17.368-3.291 37.745 4.058 47.438 6.635-4.515 3.369-8.187 4.9-12.804 5.461 7.039 5.921 12.191 10.922 15.812 16.485-6.809 1.71-10.66-2.603-25.35-11.457M420.288 430.255v-19.086c-14.741 6.762-33.487 12.248-57.613 14.417l-1.096 6.813c2.039.281 4.64.536 8.109.766-8.926 1.224-20.479 1.812-26.805 1.812-6.35 0-17.877-.588-26.829-1.812 3.442-.23 6.044-.485 8.084-.766l-1.096-6.813c-24.127-2.169-42.898-7.655-57.613-14.417v19.086l-19.995 8.217c14.818 7.707 31.854 13.985 51.543 19.062l-2.347 7.988c11.274 3.317 29.304 6.685 48.202 6.685 18.9 0 36.904-3.393 48.203-6.685l-2.321-7.988c19.664-5.077 36.751-11.355 51.568-19.062zm-164.168 8.651 13.492-5.435v-15.54c8.671 3.342 20.045 6.813 36.368 10.207l-7.651 24.931c-16.655-3.828-30.809-8.982-42.209-14.163m86.738 28.733c-15.226 0-30.094-2.27-42.795-5.409l8.085-26.156c5.355 1.25 18.77 2.883 34.71 2.883 15.966 0 29.304-1.658 34.685-2.883l8.111 26.156c-12.752 3.139-27.595 5.409-42.796 5.409m44.555-14.57-7.651-24.931c16.323-3.369 27.697-6.865 36.369-10.207v15.54l13.466 5.435c-11.4 5.181-25.504 10.335-42.184 14.163m-276.67-269.773s7.855 14.494 12.421 17.76c13.925-13.958 24.177-34.168 46.748-45.779-10.687-17.607-25.02-14.647-26.091-30.315 6.86 1.939 13.492-2.603 13.645-10.794-7.193-3.956-9.742 3.904-11.681 1.888-1.607-1.659 8.212-1.939 7.294-12.121-9.487-.306-7.753 6.584-9.972 5.716-1.786-.638 2.678-6.302-5.916-11.304-4.82 8.931 1.785 11.738.408 13.218-1.455 1.557-3.954-5.154-12.166-2.348 2.218 11.05 12.854 6.788 11.425 10.055-1.02 2.347-8.262-4.542-11.119 3.955 4.081 7.451 11.426 5.69 15.735 2.577.919 14.316 10.279 15.515 20.761 25.467-27.927-11.611-61.872 2.654-74.701 4.516 1.964 4.415 5.841 9.212 10.865 10.948-7.906 7.298-8.11 11.329-13.288 16.612 0 0 10.559 11.61 25.632-.051m-15.813-2.195c3.647-5.562 8.773-10.589 15.864-16.485-4.642-.586-8.289-2.117-12.829-5.486 9.717-2.577 30.121-9.951 47.514-6.635 5.713.767 8.926 3.088 6.835 4.416-9.334 6.2-20.888 20.566-29.279 37.332-7.344-9.161-4.233-21.155-2.728-24.6-14.665 8.83-18.49 13.143-25.377 11.458m235.708-8.448v8.395c2.881-3.496 8.493-2.806 8.493-2.806v12.12s-.204 5.972-2.296 8.524h12.089c-2.117-2.552-2.296-8.524-2.296-8.524v-12.095s5.585-.69 8.468 2.807v-8.396h-24.458z" clip-rule="evenodd"/><path fill="#000" d="M64.656 677.276V613.89h37.414v-23.066H0v23.066h37.413v63.386zm75.56-86.452h-27.243v86.452h27.243zm19.936 0v86.452h25.063V629.51l46.676 47.766h23.248v-86.452h-25.064v47.403l-45.587-47.403zm148.531 53.76 31.419 32.692h35.053l-43.77-45.042 42.136-41.41h-33.055l-31.783 32.51h-7.266v-32.51h-26.334v86.452h26.334v-32.692zm120.66-56.121c-35.416 0-56.665 19.979-56.665 45.769S393.927 680 429.343 680c35.234 0 56.484-19.978 56.484-45.768s-21.25-45.769-56.484-45.769m0 70.469c-17.617 0-28.878-10.534-28.878-24.7 0-14.167 11.261-24.519 28.878-24.519 17.435 0 28.877 10.352 28.877 24.519s-11.442 24.7-28.877 24.7m156.356-68.108H498.34v86.452h26.335v-30.15h57.21v-19.07h-57.21v-15.255h61.024zm99.146 0h-87.359v86.452h26.335v-30.15h57.21v-19.07h-57.21v-15.255h61.024z"/></svg>