<svg xmlns="http://www.w3.org/2000/svg" data-name="Layer 1" viewBox="0 0 1440 320"><path d="M1265.12 160.92c0-39.25-29.7-71-71.65-71-41.12 0-70.4 30.53-70.4 72.48 0 42.16 30.11 72.9 73.31 72.9 27.41 0 50.46-12.26 64.79-37.18l-29.07-13.5c-6.85 12.46-21.81 20.56-35.72 20.56-17.65 0-38-13.29-39.25-31.77h106.95a78 78 0 0 0 1.04-12.49m-107.37-12c2.5-18.69 15.37-30.94 35.93-30.94 20.35 0 32.81 12 34.47 30.94ZM864.79 89.89c-42.16 0-72.06 30.33-72.06 73.11 0 42.36 29.9 72.27 72.48 72.27 42.78 0 72.68-29.91 72.68-71.65 0-42.99-30.73-73.73-73.1-73.73m.42 113.6c-21.19 0-34.27-15.78-34.27-40.29 0-24.92 13.29-41.95 34.27-41.95 21.18 0 34.47 16.82 34.47 41.95 0 24.72-13.08 40.29-34.47 40.29M714.67 89.93c-17.27 0-30.28 5.9-43.29 20.53h-4.27c-8.74-13.21-23-20.53-39-20.53A50.44 50.44 0 0 0 587 110.46h-4.27l-.21-.2V92.78h-35.74v139.44h38.62v-71.76c0-23.17 9.76-36.79 26.63-36.79 15.65 0 25.81 11.59 25.81 29.27v79.28h38.82v-71.76c0-23 9.76-36.79 26.84-36.79 15.44 0 25.4 11.59 25.4 29.48v79.07h38.83v-83.75c0-36.38-19.52-58.54-53.06-58.54M1351 183.86h-2.76c0-2.48-16.84-46.64-27.88-74l-6.9-17.11h-38.91l55.2 139.93L1308 286h38.64l79.49-193.2h-38.93l-6.35 14.63-21.53 53.27c-6.07 14.88-8.56 21.78-8.32 23.16m-306-93.93c-17.28 0-32.12 7.52-42.08 20.94h-4.07l-.4-.2V92.78h-35.76v139.44h38.62v-71.35c0-22.76 11-37 29.07-37 16.87 0 29.27 12.6 29.27 32.52v75.82h38.62v-84.14c0-34.15-22.36-58.14-53.27-58.14"/><path d="M284.49 10C201.05 10 134 77.5 134 160c0 83.18 67.71 150 150.47 150S435 242.5 435 160 367.25 10 284.49 10m0 205.91c-30.78 0-56.08-25.23-56.08-55.91s25.3-55.91 56.08-55.91 56.09 25.23 56.09 55.91c-.69 30.68-25.31 55.91-56.09 55.91M134 53.58v218.18H80.68L12.28 53.58Z" style="fill:#8b3ffd"/></svg>