<svg xmlns="http://www.w3.org/2000/svg" xml:space="preserve" style="enable-background:new 0 0 266.7 265.8" viewBox="0 0 266.7 265.8"><path d="M181.4 159.6c.4 3-.5 4.3-1.5 4.3s-2.4-1.2-3.9-3.6c-1.5-2.4-2.1-5.1-1.3-6.5.5-.9 1.5-1.3 2.9-.8 2.5.9 3.5 4.8 3.8 6.6zm-14.2 6.6c3.1 2.6 4 5.7 2.4 7.8-.9 1.2-2.4 1.8-4.1 1.8-1.7 0-3.5-.6-4.7-1.7-2.8-2.4-3.6-6.4-1.8-8.6.7-.9 1.9-1.4 3.2-1.4 1.7.1 3.5.8 5 2.1zm-5.1 25c13.2 0 27.5 4.5 43.3 18.6 1.6 1.4 3.7-.3 2.3-2.1-15.6-19.7-30-23.4-44.3-26.6-17.6-3.9-26.6-13.8-32.9-24.6-1.3-2.2-1.8-1.8-1.9 1-.1 3.4.1 7.9.9 12.3h-2.1c-25.1 0-45.5-20.4-45.5-45.5s20.4-45.5 45.5-45.5 45.5 20.4 45.5 45.5c0 1.8-.1 3.6-.3 5.3-3.3-.6-9.9-.7-14.5-.3-1.7.1-1.5 1-.2 1.2 15 2.7 25.4 12 27.7 29 .1.4.6.5.8.2 6.2-10.3 9.7-22.4 9.7-35.3 0-38-30.8-68.8-68.8-68.8s-68.8 30.8-68.8 68.8 30.8 68.8 68.8 68.8c10.1 0 20.1-2 34.8-2z" style="fill:#ff8c00"/></svg>